# MagicaVoxel @ Ephtracy

# group
o 

# material
mtllib platform_3.mtl
usemtl palette

# normals
vn -1 0 0
vn 1 0 0
vn 0 0 1
vn 0 0 -1
vn 0 -1 0
vn 0 1 0

# texcoords
vt 0.970703 0.5
vt 0.974609 0.5
vt 0.982422 0.5

# verts
v -0.7 0.2 0.4
v -0.7 0.2 -0.4
v -0.7 0.3 0.3
v -0.7 0.3 -0.3
v -0.7 0.4 0.3
v -0.7 0.4 -0.3
v -0.7 0.6 0.4
v -0.7 0.6 0.3
v -0.7 0.6 -0.3
v -0.7 0.6 -0.4
v -0.5 0.2 0.5
v -0.5 0.2 0.4
v -0.5 0.2 -0.4
v -0.5 0.2 -0.5
v -0.5 0.5 0.5
v -0.5 0.5 0.4
v -0.5 0.5 0.3
v -0.5 0.5 -0.3
v -0.5 0.5 -0.4
v -0.5 0.5 -0.5
v -0.5 0.6 0.4
v -0.5 0.6 0.3
v -0.5 0.6 -0.3
v -0.5 0.6 -0.4
v -0.4 0.2 0.7
v -0.4 0.2 0.5
v -0.4 0.5 0.6
v -0.4 0.5 0.5
v -0.4 0.5 0.4
v -0.4 0.5 -0.4
v -0.4 0.5 -0.5
v -0.4 0.6 0.7
v -0.4 0.6 0.6
v -0.4 0.6 0.5
v -0.4 0.6 0.4
v -0.4 0.6 -0.4
v -0.4 0.6 -0.5
v -0.2 0.5 -0.4
v -0.2 0.5 -0.5
v -0.2 0.6 -0.4
v -0.2 0.6 -0.5
v 0 0.5 -0.4
v 0 0.5 -0.5
v 0 0.6 -0.4
v 0 0.6 -0.5
v 0.2 0.5 -0.4
v 0.2 0.5 -0.5
v 0.2 0.6 -0.4
v 0.2 0.6 -0.5
v 0.3 0.2 -0.4
v 0.3 0.2 -0.5
v 0.3 0.3 -0.4
v 0.3 0.3 -0.5
v 0.3 0.4 0.7
v 0.3 0.4 0.4
v 0.3 0.5 0.6
v 0.3 0.5 0.5
v 0.3 0.6 0.7
v 0.3 0.6 0.6
v 0.3 0.6 0.5
v 0.3 0.6 0.4
v 0.4 0.4 0.4
v 0.4 0.4 0.3
v 0.4 0.4 -0.3
v 0.4 0.4 -0.4
v 0.4 0.5 0.3
v 0.4 0.5 0.2
v 0.4 0.5 0.1
v 0.4 0.5 0
v 0.4 0.5 -0.1
v 0.4 0.5 -0.2
v 0.4 0.5 -0.3
v 0.4 0.5 -0.4
v 0.4 0.5 -0.5
v 0.4 0.6 0.4
v 0.4 0.6 0.3
v 0.4 0.6 0.2
v 0.4 0.6 0.1
v 0.4 0.6 0
v 0.4 0.6 -0.1
v 0.4 0.6 -0.2
v 0.4 0.6 -0.3
v 0.4 0.6 -0.4
v 0.4 0.6 -0.5
v -0.6 0.5 0.4
v -0.6 0.5 0.3
v -0.6 0.5 -0.3
v -0.6 0.5 -0.4
v -0.6 0.6 0.4
v -0.6 0.6 0.3
v -0.6 0.6 -0.3
v -0.6 0.6 -0.4
v -0.4 0.4 0.4
v -0.4 0.4 0.3
v -0.4 0.4 -0.3
v -0.4 0.4 -0.4
v -0.4 0.6 0.4
v -0.4 0.6 0.3
v -0.4 0.6 -0.3
v -0.4 0.6 -0.4
v -0.3 0.2 -0.4
v -0.3 0.2 -0.5
v -0.3 0.3 -0.4
v -0.3 0.3 -0.5
v -0.3 0.4 0.7
v -0.3 0.4 0.4
v -0.3 0.5 0.6
v -0.3 0.5 0.5
v -0.3 0.5 -0.4
v -0.3 0.5 -0.5
v -0.3 0.6 0.7
v -0.3 0.6 0.6
v -0.3 0.6 0.5
v -0.3 0.6 0.4
v -0.3 0.6 -0.4
v -0.3 0.6 -0.5
v -0.1 0.5 -0.4
v -0.1 0.5 -0.5
v -0.1 0.6 -0.4
v -0.1 0.6 -0.5
v 0.1 0.5 -0.4
v 0.1 0.5 -0.5
v 0.1 0.6 -0.4
v 0.1 0.6 -0.5
v 0.3 0.5 -0.4
v 0.3 0.5 -0.5
v 0.3 0.6 -0.4
v 0.3 0.6 -0.5
v 0.4 0.2 0.7
v 0.4 0.2 0.5
v 0.4 0.2 0.3
v 0.4 0.2 -0.3
v 0.4 0.3 0.3
v 0.4 0.3 -0.3
v 0.4 0.5 0.6
v 0.4 0.5 0.5
v 0.4 0.5 0.4
v 0.4 0.6 0.7
v 0.4 0.6 0.6
v 0.4 0.6 0.5
v 0.4 0.6 0.4
v 0.5 0.2 0.5
v 0.5 0.2 0.3
v 0.5 0.2 -0.3
v 0.5 0.2 -0.5
v 0.5 0.3 0.3
v 0.5 0.3 -0.3
v 0.5 0.5 0.5
v 0.5 0.5 0.4
v 0.5 0.5 0.3
v 0.5 0.5 0.2
v 0.5 0.5 0.1
v 0.5 0.5 0
v 0.5 0.5 -0.1
v 0.5 0.5 -0.2
v 0.5 0.5 -0.3
v 0.5 0.5 -0.4
v 0.5 0.6 0.4
v 0.5 0.6 0.3
v 0.5 0.6 0.2
v 0.5 0.6 0.1
v 0.5 0.6 0
v 0.5 0.6 -0.1
v 0.5 0.6 -0.2
v 0.5 0.6 -0.3
v 0.5 0.6 -0.4
v 0.5 0.6 -0.5
v -0.4 0.2 0.7
v -0.4 0.6 0.7
v -0.3 0.3 0.7
v -0.3 0.4 0.7
v -0.3 0.6 0.7
v 0.3 0.3 0.7
v 0.3 0.4 0.7
v 0.3 0.6 0.7
v 0.4 0.2 0.7
v 0.4 0.6 0.7
v -0.5 0.2 0.5
v -0.5 0.5 0.5
v -0.4 0.2 0.5
v -0.4 0.5 0.5
v -0.4 0.6 0.5
v -0.3 0.5 0.5
v -0.3 0.6 0.5
v 0.3 0.5 0.5
v 0.3 0.6 0.5
v 0.4 0.2 0.5
v 0.4 0.5 0.5
v 0.4 0.6 0.5
v 0.5 0.2 0.5
v 0.5 0.5 0.5
v -0.7 0.2 0.4
v -0.7 0.6 0.4
v -0.6 0.5 0.4
v -0.6 0.6 0.4
v -0.5 0.2 0.4
v -0.5 0.5 0.4
v -0.5 0.6 0.4
v -0.4 0.5 0.4
v -0.4 0.6 0.4
v 0.4 0.5 0.4
v 0.4 0.6 0.4
v 0.5 0.5 0.4
v 0.5 0.6 0.4
v 0.4 0.5 0.2
v 0.4 0.6 0.2
v 0.5 0.5 0.2
v 0.5 0.6 0.2
v 0.4 0.5 0
v 0.4 0.6 0
v 0.5 0.5 0
v 0.5 0.6 0
v 0.4 0.5 -0.2
v 0.4 0.6 -0.2
v 0.5 0.5 -0.2
v 0.5 0.6 -0.2
v -0.7 0.4 -0.3
v -0.7 0.6 -0.3
v -0.6 0.5 -0.3
v -0.6 0.6 -0.3
v -0.5 0.5 -0.3
v -0.5 0.6 -0.3
v -0.4 0.4 -0.3
v -0.4 0.6 -0.3
v 0.4 0.2 -0.3
v 0.4 0.3 -0.3
v 0.5 0.2 -0.3
v 0.5 0.3 -0.3
v -0.4 0.4 -0.4
v -0.4 0.6 -0.4
v -0.3 0.4 -0.4
v -0.3 0.5 -0.4
v -0.3 0.6 -0.4
v -0.2 0.5 -0.4
v -0.2 0.6 -0.4
v -0.1 0.5 -0.4
v -0.1 0.6 -0.4
v 0 0.5 -0.4
v 0 0.6 -0.4
v 0.1 0.5 -0.4
v 0.1 0.6 -0.4
v 0.2 0.5 -0.4
v 0.2 0.6 -0.4
v 0.3 0.4 -0.4
v 0.3 0.5 -0.4
v 0.3 0.6 -0.4
v 0.4 0.4 -0.4
v 0.4 0.5 -0.4
v 0.4 0.6 -0.4
v 0.5 0.5 -0.4
v 0.5 0.6 -0.4
v -0.4 0.5 0.6
v -0.4 0.6 0.6
v -0.3 0.5 0.6
v -0.3 0.6 0.6
v 0.3 0.5 0.6
v 0.3 0.6 0.6
v 0.4 0.5 0.6
v 0.4 0.6 0.6
v -0.4 0.4 0.4
v -0.4 0.6 0.4
v -0.3 0.4 0.4
v -0.3 0.6 0.4
v 0.3 0.4 0.4
v 0.3 0.6 0.4
v 0.4 0.4 0.4
v 0.4 0.6 0.4
v -0.7 0.4 0.3
v -0.7 0.6 0.3
v -0.6 0.5 0.3
v -0.6 0.6 0.3
v -0.5 0.5 0.3
v -0.5 0.6 0.3
v -0.4 0.4 0.3
v -0.4 0.6 0.3
v 0.4 0.2 0.3
v 0.4 0.3 0.3
v 0.4 0.5 0.3
v 0.4 0.6 0.3
v 0.5 0.2 0.3
v 0.5 0.3 0.3
v 0.5 0.5 0.3
v 0.5 0.6 0.3
v 0.4 0.5 0.1
v 0.4 0.6 0.1
v 0.5 0.5 0.1
v 0.5 0.6 0.1
v 0.4 0.5 -0.1
v 0.4 0.6 -0.1
v 0.5 0.5 -0.1
v 0.5 0.6 -0.1
v 0.4 0.5 -0.3
v 0.4 0.6 -0.3
v 0.5 0.5 -0.3
v 0.5 0.6 -0.3
v -0.7 0.2 -0.4
v -0.7 0.6 -0.4
v -0.6 0.5 -0.4
v -0.6 0.6 -0.4
v -0.5 0.2 -0.4
v -0.5 0.5 -0.4
v -0.5 0.6 -0.4
v -0.4 0.5 -0.4
v -0.4 0.6 -0.4
v -0.3 0.2 -0.4
v -0.3 0.3 -0.4
v 0.3 0.2 -0.4
v 0.3 0.3 -0.4
v -0.5 0.2 -0.5
v -0.5 0.5 -0.5
v -0.4 0.5 -0.5
v -0.4 0.6 -0.5
v -0.3 0.2 -0.5
v -0.3 0.3 -0.5
v -0.3 0.5 -0.5
v -0.3 0.6 -0.5
v -0.2 0.5 -0.5
v -0.2 0.6 -0.5
v -0.1 0.5 -0.5
v -0.1 0.6 -0.5
v 0 0.5 -0.5
v 0 0.6 -0.5
v 0.1 0.5 -0.5
v 0.1 0.6 -0.5
v 0.2 0.5 -0.5
v 0.2 0.6 -0.5
v 0.3 0.2 -0.5
v 0.3 0.3 -0.5
v 0.3 0.5 -0.5
v 0.3 0.6 -0.5
v 0.4 0.5 -0.5
v 0.4 0.6 -0.5
v 0.5 0.2 -0.5
v 0.5 0.6 -0.5
v -0.4 0.2 0.7
v 0.4 0.2 0.7
v -0.5 0.2 0.5
v -0.4 0.2 0.5
v 0.4 0.2 0.5
v 0.5 0.2 0.5
v -0.7 0.2 0.4
v -0.5 0.2 0.4
v 0.4 0.2 0.3
v 0.5 0.2 0.3
v 0.4 0.2 -0.3
v 0.5 0.2 -0.3
v -0.7 0.2 -0.4
v -0.5 0.2 -0.4
v -0.3 0.2 -0.4
v 0.3 0.2 -0.4
v -0.5 0.2 -0.5
v -0.3 0.2 -0.5
v 0.3 0.2 -0.5
v 0.5 0.2 -0.5
v 0.4 0.3 0.3
v 0.5 0.3 0.3
v 0.4 0.3 -0.3
v 0.5 0.3 -0.3
v -0.3 0.3 -0.4
v 0.3 0.3 -0.4
v -0.3 0.3 -0.5
v 0.3 0.3 -0.5
v -0.3 0.4 0.7
v 0.3 0.4 0.7
v -0.4 0.4 0.4
v -0.3 0.4 0.4
v 0.3 0.4 0.4
v 0.4 0.4 0.4
v -0.7 0.4 0.3
v -0.4 0.4 0.3
v -0.3 0.4 0.3
v -0.2 0.4 0.3
v 0.2 0.4 0.3
v 0.3 0.4 0.3
v 0.4 0.4 0.3
v -0.3 0.4 0.2
v -0.2 0.4 0.2
v -0.1 0.4 0.2
v 0.1 0.4 0.2
v 0.2 0.4 0.2
v 0.3 0.4 0.2
v -0.2 0.4 0.1
v -0.1 0.4 0.1
v 0.1 0.4 0.1
v 0.2 0.4 0.1
v -0.2 0.4 -0.1
v -0.1 0.4 -0.1
v 0.1 0.4 -0.1
v 0.2 0.4 -0.1
v -0.3 0.4 -0.2
v -0.2 0.4 -0.2
v -0.1 0.4 -0.2
v 0.1 0.4 -0.2
v 0.2 0.4 -0.2
v 0.3 0.4 -0.2
v -0.7 0.4 -0.3
v -0.4 0.4 -0.3
v -0.3 0.4 -0.3
v -0.2 0.4 -0.3
v 0.2 0.4 -0.3
v 0.3 0.4 -0.3
v 0.4 0.4 -0.3
v -0.4 0.4 -0.4
v -0.3 0.4 -0.4
v 0.3 0.4 -0.4
v 0.4 0.4 -0.4
v -0.4 0.5 0.6
v -0.3 0.5 0.6
v 0.3 0.5 0.6
v 0.4 0.5 0.6
v -0.5 0.5 0.5
v -0.4 0.5 0.5
v -0.3 0.5 0.5
v 0.3 0.5 0.5
v 0.4 0.5 0.5
v 0.5 0.5 0.5
v -0.6 0.5 0.4
v -0.5 0.5 0.4
v -0.4 0.5 0.4
v 0.4 0.5 0.4
v 0.5 0.5 0.4
v -0.6 0.5 0.3
v -0.5 0.5 0.3
v 0.4 0.5 0.3
v 0.5 0.5 0.3
v 0.4 0.5 0.2
v 0.5 0.5 0.2
v 0.4 0.5 0.1
v 0.5 0.5 0.1
v 0.4 0.5 0
v 0.5 0.5 0
v 0.4 0.5 -0.1
v 0.5 0.5 -0.1
v 0.4 0.5 -0.2
v 0.5 0.5 -0.2
v -0.6 0.5 -0.3
v -0.5 0.5 -0.3
v 0.4 0.5 -0.3
v 0.5 0.5 -0.3
v -0.6 0.5 -0.4
v -0.5 0.5 -0.4
v -0.4 0.5 -0.4
v -0.3 0.5 -0.4
v -0.2 0.5 -0.4
v -0.1 0.5 -0.4
v 0 0.5 -0.4
v 0.1 0.5 -0.4
v 0.2 0.5 -0.4
v 0.3 0.5 -0.4
v 0.4 0.5 -0.4
v 0.5 0.5 -0.4
v -0.5 0.5 -0.5
v -0.4 0.5 -0.5
v -0.3 0.5 -0.5
v -0.2 0.5 -0.5
v -0.1 0.5 -0.5
v 0 0.5 -0.5
v 0.1 0.5 -0.5
v 0.2 0.5 -0.5
v 0.3 0.5 -0.5
v 0.4 0.5 -0.5
v -0.4 0.6 0.7
v -0.3 0.6 0.7
v 0.3 0.6 0.7
v 0.4 0.6 0.7
v -0.4 0.6 0.6
v -0.3 0.6 0.6
v 0.3 0.6 0.6
v 0.4 0.6 0.6
v -0.4 0.6 0.5
v -0.3 0.6 0.5
v 0.3 0.6 0.5
v 0.4 0.6 0.5
v -0.7 0.6 0.4
v -0.6 0.6 0.4
v -0.5 0.6 0.4
v -0.4 0.6 0.4
v -0.3 0.6 0.4
v 0.3 0.6 0.4
v 0.4 0.6 0.4
v 0.5 0.6 0.4
v -0.7 0.6 0.3
v -0.6 0.6 0.3
v -0.5 0.6 0.3
v -0.4 0.6 0.3
v 0.4 0.6 0.3
v 0.5 0.6 0.3
v 0.4 0.6 0.2
v 0.5 0.6 0.2
v 0.4 0.6 0.1
v 0.5 0.6 0.1
v 0.4 0.6 0
v 0.5 0.6 0
v 0.4 0.6 -0.1
v 0.5 0.6 -0.1
v 0.4 0.6 -0.2
v 0.5 0.6 -0.2
v -0.7 0.6 -0.3
v -0.6 0.6 -0.3
v -0.5 0.6 -0.3
v -0.4 0.6 -0.3
v 0.4 0.6 -0.3
v 0.5 0.6 -0.3
v -0.7 0.6 -0.4
v -0.6 0.6 -0.4
v -0.5 0.6 -0.4
v -0.4 0.6 -0.4
v -0.3 0.6 -0.4
v -0.2 0.6 -0.4
v -0.1 0.6 -0.4
v 0 0.6 -0.4
v 0.1 0.6 -0.4
v 0.2 0.6 -0.4
v 0.3 0.6 -0.4
v 0.4 0.6 -0.4
v 0.5 0.6 -0.4
v -0.4 0.6 -0.5
v -0.3 0.6 -0.5
v -0.2 0.6 -0.5
v -0.1 0.6 -0.5
v 0 0.6 -0.5
v 0.1 0.6 -0.5
v 0.2 0.6 -0.5
v 0.3 0.6 -0.5
v 0.4 0.6 -0.5
v 0.5 0.6 -0.5

# faces
f 3/3/1 2/3/1 1/3/1
f 4/3/1 2/3/1 3/3/1
f 5/3/1 3/3/1 1/3/1
f 5/1/1 4/1/1 3/1/1
f 6/3/1 2/3/1 4/3/1
f 6/1/1 4/1/1 5/1/1
f 7/3/1 5/3/1 1/3/1
f 8/3/1 5/3/1 7/3/1
f 9/3/1 2/3/1 6/3/1
f 10/3/1 2/3/1 9/3/1
f 15/3/1 12/3/1 11/3/1
f 16/3/1 12/3/1 15/3/1
f 19/3/1 14/3/1 13/3/1
f 20/3/1 14/3/1 19/3/1
f 21/3/1 17/3/1 16/3/1
f 22/3/1 17/3/1 21/3/1
f 23/3/1 19/3/1 18/3/1
f 24/3/1 19/3/1 23/3/1
f 27/3/1 26/3/1 25/3/1
f 28/3/1 26/3/1 27/3/1
f 32/3/1 27/3/1 25/3/1
f 33/3/1 27/3/1 32/3/1
f 34/3/1 29/3/1 28/3/1
f 35/3/1 29/3/1 34/3/1
f 36/3/1 31/3/1 30/3/1
f 37/3/1 31/3/1 36/3/1
f 40/3/1 39/3/1 38/3/1
f 41/3/1 39/3/1 40/3/1
f 44/3/1 43/3/1 42/3/1
f 45/3/1 43/3/1 44/3/1
f 48/3/1 47/3/1 46/3/1
f 49/3/1 47/3/1 48/3/1
f 52/3/1 51/3/1 50/3/1
f 53/3/1 51/3/1 52/3/1
f 56/3/1 55/3/1 54/3/1
f 57/3/1 55/3/1 56/3/1
f 58/3/1 56/3/1 54/3/1
f 59/3/1 56/3/1 58/3/1
f 60/3/1 55/3/1 57/3/1
f 61/3/1 55/3/1 60/3/1
f 66/3/1 63/3/1 62/3/1
f 66/3/1 65/3/1 64/3/1
f 66/3/1 64/3/1 63/3/1
f 67/3/1 65/3/1 66/3/1
f 68/3/1 65/3/1 67/3/1
f 69/3/1 65/3/1 68/3/1
f 70/3/1 65/3/1 69/3/1
f 71/3/1 65/3/1 70/3/1
f 72/3/1 65/3/1 71/3/1
f 73/3/1 65/3/1 72/3/1
f 75/3/1 66/3/1 62/3/1
f 76/3/1 66/3/1 75/3/1
f 77/3/1 68/3/1 67/3/1
f 78/3/1 68/3/1 77/3/1
f 79/3/1 70/3/1 69/3/1
f 80/3/1 70/3/1 79/3/1
f 81/3/1 72/3/1 71/3/1
f 82/3/1 72/3/1 81/3/1
f 83/3/1 74/3/1 73/3/1
f 84/3/1 74/3/1 83/3/1
f 85/3/2 86/3/2 89/3/2
f 89/3/2 86/3/2 90/3/2
f 87/3/2 88/3/2 91/3/2
f 91/3/2 88/3/2 92/3/2
f 93/3/2 94/3/2 97/3/2
f 97/3/2 94/3/2 98/3/2
f 95/3/2 96/3/2 99/3/2
f 99/3/2 96/3/2 100/3/2
f 101/3/2 102/3/2 103/3/2
f 103/3/2 102/3/2 104/3/2
f 105/3/2 106/3/2 107/3/2
f 107/3/2 106/3/2 108/3/2
f 105/3/2 107/3/2 111/3/2
f 111/3/2 107/3/2 112/3/2
f 108/3/2 106/3/2 113/3/2
f 113/3/2 106/3/2 114/3/2
f 109/3/2 110/3/2 115/3/2
f 115/3/2 110/3/2 116/3/2
f 117/3/2 118/3/2 119/3/2
f 119/3/2 118/3/2 120/3/2
f 121/3/2 122/3/2 123/3/2
f 123/3/2 122/3/2 124/3/2
f 125/3/2 126/3/2 127/3/2
f 127/3/2 126/3/2 128/3/2
f 131/3/2 132/3/2 133/3/2
f 133/3/2 132/3/2 134/3/2
f 129/3/2 130/3/2 135/3/2
f 135/3/2 130/3/2 136/3/2
f 129/3/2 135/3/2 138/3/2
f 138/3/2 135/3/2 139/3/2
f 136/3/2 137/3/2 140/3/2
f 140/3/2 137/3/2 141/3/2
f 142/3/2 143/3/2 146/3/2
f 144/3/2 145/3/2 147/3/2
f 142/3/2 146/3/2 148/3/2
f 146/3/2 147/3/2 148/3/2
f 148/3/2 147/3/2 149/3/2
f 149/3/2 147/3/2 150/3/2
f 150/3/2 147/3/2 151/3/2
f 151/3/2 147/3/2 152/3/2
f 152/3/2 147/3/2 153/3/2
f 153/3/2 147/3/2 154/3/2
f 154/3/2 147/3/2 155/3/2
f 147/3/2 145/3/2 156/3/2
f 155/3/2 147/3/2 156/3/2
f 156/3/2 145/3/2 157/3/2
f 149/3/2 150/3/2 158/3/2
f 158/3/2 150/3/2 159/3/2
f 151/3/2 152/3/2 160/3/2
f 160/3/2 152/3/2 161/3/2
f 153/3/2 154/3/2 162/3/2
f 162/3/2 154/3/2 163/3/2
f 155/3/2 156/3/2 164/3/2
f 164/3/2 156/3/2 165/3/2
f 157/3/2 145/3/2 166/3/2
f 166/3/2 145/3/2 167/3/2
f 170/3/3 169/3/3 168/3/3
f 171/3/3 169/3/3 170/3/3
f 172/3/3 169/3/3 171/3/3
f 173/3/3 170/3/3 168/3/3
f 173/1/3 171/1/3 170/1/3
f 174/1/3 171/1/3 173/1/3
f 176/3/3 173/3/3 168/3/3
f 176/3/3 175/3/3 174/3/3
f 176/3/3 174/3/3 173/3/3
f 177/3/3 175/3/3 176/3/3
f 180/3/3 179/3/3 178/3/3
f 181/3/3 179/3/3 180/3/3
f 183/3/3 182/3/3 181/3/3
f 184/3/3 182/3/3 183/3/3
f 188/3/3 186/3/3 185/3/3
f 189/3/3 186/3/3 188/3/3
f 190/3/3 188/3/3 187/3/3
f 191/3/3 188/3/3 190/3/3
f 194/3/3 193/3/3 192/3/3
f 195/3/3 193/3/3 194/3/3
f 196/3/3 194/3/3 192/3/3
f 197/3/3 194/3/3 196/3/3
f 199/3/3 198/3/3 197/3/3
f 200/3/3 198/3/3 199/3/3
f 203/3/3 202/3/3 201/3/3
f 204/3/3 202/3/3 203/3/3
f 207/3/3 206/3/3 205/3/3
f 208/3/3 206/3/3 207/3/3
f 211/3/3 210/3/3 209/3/3
f 212/3/3 210/3/3 211/3/3
f 215/3/3 214/3/3 213/3/3
f 216/3/3 214/3/3 215/3/3
f 219/3/3 218/3/3 217/3/3
f 220/3/3 218/3/3 219/3/3
f 221/3/3 219/3/3 217/3/3
f 223/3/3 221/3/3 217/3/3
f 223/3/3 222/3/3 221/3/3
f 224/3/3 222/3/3 223/3/3
f 227/3/3 226/3/3 225/3/3
f 228/3/3 226/3/3 227/3/3
f 231/3/3 230/3/3 229/3/3
f 232/3/3 230/3/3 231/3/3
f 233/3/3 230/3/3 232/3/3
f 234/3/3 232/3/3 231/3/3
f 236/3/3 234/3/3 231/3/3
f 236/3/3 235/3/3 234/3/3
f 237/3/3 235/3/3 236/3/3
f 238/3/3 236/3/3 231/3/3
f 240/3/3 238/3/3 231/3/3
f 240/3/3 239/3/3 238/3/3
f 241/3/3 239/3/3 240/3/3
f 242/3/3 240/3/3 231/3/3
f 244/3/3 242/3/3 231/3/3
f 244/3/3 243/3/3 242/3/3
f 245/3/3 243/3/3 244/3/3
f 246/3/3 243/3/3 245/3/3
f 247/3/3 245/3/3 244/3/3
f 248/3/3 245/3/3 247/3/3
f 250/3/3 249/3/3 248/3/3
f 251/3/3 249/3/3 250/3/3
f 252/3/4 253/3/4 254/3/4
f 254/3/4 253/3/4 255/3/4
f 256/3/4 257/3/4 258/3/4
f 258/3/4 257/3/4 259/3/4
f 260/3/4 261/3/4 262/3/4
f 262/3/4 261/3/4 263/3/4
f 264/3/4 265/3/4 266/3/4
f 266/3/4 265/3/4 267/3/4
f 268/3/4 269/3/4 270/3/4
f 270/3/4 269/3/4 271/3/4
f 268/3/4 270/3/4 272/3/4
f 268/3/4 272/3/4 274/3/4
f 272/3/4 273/3/4 274/3/4
f 274/3/4 273/3/4 275/3/4
f 276/3/4 277/3/4 280/3/4
f 280/3/4 277/3/4 281/3/4
f 278/3/4 279/3/4 282/3/4
f 282/3/4 279/3/4 283/3/4
f 284/3/4 285/3/4 286/3/4
f 286/3/4 285/3/4 287/3/4
f 288/3/4 289/3/4 290/3/4
f 290/3/4 289/3/4 291/3/4
f 292/3/4 293/3/4 294/3/4
f 294/3/4 293/3/4 295/3/4
f 296/3/4 297/3/4 298/3/4
f 298/3/4 297/3/4 299/3/4
f 296/3/4 298/3/4 300/3/4
f 300/3/4 298/3/4 301/3/4
f 301/3/4 302/3/4 303/3/4
f 303/3/4 302/3/4 304/3/4
f 305/3/4 306/3/4 307/3/4
f 307/3/4 306/3/4 308/3/4
f 309/3/4 310/3/4 311/3/4
f 309/3/4 311/3/4 313/3/4
f 311/3/4 312/3/4 313/3/4
f 313/3/4 312/3/4 314/3/4
f 314/3/4 312/3/4 315/3/4
f 315/3/4 312/3/4 316/3/4
f 314/3/4 315/3/4 317/3/4
f 314/3/4 317/3/4 319/3/4
f 317/3/4 318/3/4 319/3/4
f 319/3/4 318/3/4 320/3/4
f 314/3/4 319/3/4 321/3/4
f 314/3/4 321/3/4 323/3/4
f 321/3/4 322/3/4 323/3/4
f 323/3/4 322/3/4 324/3/4
f 314/3/4 323/3/4 325/3/4
f 314/3/4 325/3/4 328/3/4
f 325/3/4 326/3/4 328/3/4
f 328/3/4 326/3/4 329/3/4
f 329/3/4 326/3/4 330/3/4
f 327/3/4 328/3/4 331/3/4
f 328/3/4 329/3/4 331/3/4
f 327/3/4 331/3/4 333/3/4
f 331/3/4 332/3/4 333/3/4
f 333/3/4 332/3/4 334/3/4
f 338/3/5 336/3/5 335/3/5
f 339/3/5 336/3/5 338/3/5
f 342/3/5 338/3/5 337/3/5
f 342/3/5 340/3/5 339/3/5
f 342/3/5 339/3/5 338/3/5
f 343/3/5 340/3/5 342/3/5
f 343/3/5 342/3/5 341/3/5
f 344/3/5 340/3/5 343/3/5
f 345/3/5 343/3/5 341/3/5
f 347/3/5 345/3/5 341/3/5
f 347/3/5 346/3/5 345/3/5
f 348/3/5 346/3/5 347/3/5
f 349/3/5 346/3/5 348/3/5
f 350/3/5 346/3/5 349/3/5
f 351/3/5 349/3/5 348/3/5
f 352/3/5 349/3/5 351/3/5
f 353/3/5 346/3/5 350/3/5
f 354/3/5 346/3/5 353/3/5
f 357/3/5 356/3/5 355/3/5
f 358/3/5 356/3/5 357/3/5
f 361/3/5 360/3/5 359/3/5
f 362/3/5 360/3/5 361/3/5
f 363/1/6 364/1/6 366/1/6
f 366/1/6 364/1/6 367/1/6
f 365/2/6 366/2/6 370/2/6
f 366/1/6 367/1/6 371/1/6
f 370/2/6 366/2/6 371/2/6
f 371/1/6 367/1/6 372/1/6
f 372/1/6 367/1/6 373/1/6
f 367/2/6 368/2/6 374/2/6
f 373/1/6 367/1/6 374/1/6
f 374/2/6 368/2/6 375/2/6
f 369/1/6 370/1/6 376/1/6
f 370/1/6 371/1/6 376/1/6
f 371/2/6 372/2/6 376/2/6
f 372/1/6 373/1/6 377/1/6
f 376/2/6 372/2/6 377/2/6
f 377/1/6 373/1/6 378/1/6
f 378/1/6 373/1/6 379/1/6
f 373/2/6 374/2/6 380/2/6
f 379/1/6 373/1/6 380/1/6
f 374/1/6 375/1/6 381/1/6
f 380/2/6 374/2/6 381/2/6
f 376/1/6 377/1/6 382/1/6
f 377/2/6 378/2/6 382/2/6
f 378/1/6 379/1/6 383/1/6
f 382/2/6 378/2/6 383/2/6
f 379/2/6 380/2/6 384/2/6
f 383/1/6 379/1/6 384/1/6
f 380/1/6 381/1/6 385/1/6
f 384/2/6 380/2/6 385/2/6
f 382/1/6 383/1/6 386/1/6
f 376/1/6 382/1/6 386/1/6
f 383/2/6 384/2/6 387/2/6
f 386/1/6 383/1/6 387/1/6
f 384/1/6 385/1/6 388/1/6
f 387/2/6 384/2/6 388/2/6
f 385/1/6 381/1/6 389/1/6
f 388/1/6 385/1/6 389/1/6
f 369/1/6 376/1/6 390/1/6
f 376/1/6 386/1/6 390/1/6
f 386/2/6 387/2/6 391/2/6
f 390/1/6 386/1/6 391/1/6
f 387/1/6 388/1/6 392/1/6
f 391/2/6 387/2/6 392/2/6
f 388/2/6 389/2/6 393/2/6
f 392/1/6 388/1/6 393/1/6
f 389/1/6 381/1/6 394/1/6
f 393/2/6 389/2/6 394/2/6
f 381/1/6 375/1/6 395/1/6
f 394/1/6 381/1/6 395/1/6
f 369/1/6 390/1/6 396/1/6
f 396/1/6 390/1/6 397/1/6
f 390/2/6 391/2/6 398/2/6
f 397/1/6 390/1/6 398/1/6
f 392/1/6 393/1/6 399/1/6
f 398/2/6 391/2/6 399/2/6
f 393/1/6 394/1/6 399/1/6
f 391/1/6 392/1/6 399/1/6
f 394/2/6 395/2/6 400/2/6
f 399/1/6 394/1/6 400/1/6
f 395/1/6 375/1/6 401/1/6
f 400/2/6 395/2/6 401/2/6
f 401/1/6 375/1/6 402/1/6
f 397/2/6 398/2/6 403/2/6
f 399/1/6 400/1/6 404/1/6
f 403/2/6 398/2/6 404/2/6
f 398/1/6 399/1/6 404/1/6
f 400/1/6 401/1/6 404/1/6
f 401/2/6 402/2/6 405/2/6
f 404/1/6 401/1/6 405/1/6
f 405/2/6 402/2/6 406/2/6
f 407/3/6 408/3/6 412/3/6
f 412/3/6 408/3/6 413/3/6
f 409/3/6 410/3/6 414/3/6
f 414/3/6 410/3/6 415/3/6
f 411/3/6 412/3/6 418/3/6
f 418/3/6 412/3/6 419/3/6
f 415/3/6 416/3/6 420/3/6
f 420/3/6 416/3/6 421/3/6
f 417/3/6 418/3/6 422/3/6
f 422/3/6 418/3/6 423/3/6
f 424/3/6 425/3/6 426/3/6
f 426/3/6 425/3/6 427/3/6
f 428/3/6 429/3/6 430/3/6
f 430/3/6 429/3/6 431/3/6
f 432/3/6 433/3/6 434/3/6
f 434/3/6 433/3/6 435/3/6
f 436/3/6 437/3/6 440/3/6
f 440/3/6 437/3/6 441/3/6
f 438/3/6 439/3/6 450/3/6
f 450/3/6 439/3/6 451/3/6
f 441/3/6 442/3/6 452/3/6
f 452/3/6 442/3/6 453/3/6
f 443/3/6 444/3/6 454/3/6
f 454/3/6 444/3/6 455/3/6
f 445/3/6 446/3/6 456/3/6
f 456/3/6 446/3/6 457/3/6
f 447/3/6 448/3/6 458/3/6
f 458/3/6 448/3/6 459/3/6
f 449/3/6 450/3/6 460/3/6
f 460/3/6 450/3/6 461/3/6
f 462/3/6 463/3/6 466/3/6
f 466/3/6 463/3/6 467/3/6
f 464/3/6 465/3/6 468/3/6
f 468/3/6 465/3/6 469/3/6
f 470/3/6 471/3/6 477/3/6
f 477/3/6 471/3/6 478/3/6
f 472/3/6 473/3/6 479/3/6
f 479/3/6 473/3/6 480/3/6
f 474/3/6 475/3/6 482/3/6
f 482/3/6 475/3/6 483/3/6
f 476/3/6 477/3/6 484/3/6
f 484/3/6 477/3/6 485/3/6
f 480/3/6 481/3/6 486/3/6
f 486/3/6 481/3/6 487/3/6
f 488/3/6 489/3/6 490/3/6
f 490/3/6 489/3/6 491/3/6
f 492/3/6 493/3/6 494/3/6
f 494/3/6 493/3/6 495/3/6
f 496/3/6 497/3/6 502/3/6
f 502/3/6 497/3/6 503/3/6
f 498/3/6 499/3/6 504/3/6
f 504/3/6 499/3/6 505/3/6
f 500/3/6 501/3/6 506/3/6
f 506/3/6 501/3/6 507/3/6
f 507/3/6 508/3/6 517/3/6
f 517/3/6 508/3/6 518/3/6
f 509/3/6 510/3/6 519/3/6
f 519/3/6 510/3/6 520/3/6
f 511/3/6 512/3/6 521/3/6
f 521/3/6 512/3/6 522/3/6
f 513/3/6 514/3/6 523/3/6
f 523/3/6 514/3/6 524/3/6
f 515/3/6 516/3/6 525/3/6
f 525/3/6 516/3/6 526/3/6
