# MagicaVoxel @ Ephtracy

# group
o 

# material
mtllib 3_почти узка полоска.mtl
usemtl palette

# normals
vn -1 0 0
vn 1 0 0
vn 0 0 1
vn 0 0 -1
vn 0 -1 0
vn 0 1 0

# texcoords
vt 0.00195313 0.5
vt 0.00585938 0.5
vt 0.0214844 0.5
vt 0.0566406 0.5

# verts
v -0.5 0.3 -0.4
v -0.5 0.3 -0.5
v -0.5 0.3 -0.6
v -0.5 0.3 -0.7
v -0.5 0.4 -0.4
v -0.5 0.4 -0.5
v -0.5 0.4 -0.6
v -0.5 0.4 -0.7
v -0.5 0.5 -0.5
v -0.5 0.5 -0.6
v -0.4 0.1 -0.5
v -0.4 0.1 -0.6
v -0.4 0.3 -0.5
v -0.4 0.3 -0.6
v -0.4 0.4 -0.4
v -0.4 0.4 -0.5
v -0.4 0.4 -0.6
v -0.4 0.4 -0.7
v -0.4 0.5 -0.4
v -0.4 0.5 -0.5
v -0.4 0.5 -0.6
v -0.4 0.5 -0.7
v -0.4 0.6 -0.5
v -0.4 0.6 -0.6
v -0.3 0 0.8
v -0.3 0 -0.8
v -0.3 0.1 0.8
v -0.3 0.1 0.7
v -0.3 0.1 0.2
v -0.3 0.1 0.1
v -0.3 0.1 -0.1
v -0.3 0.1 -0.2
v -0.3 0.1 -0.5
v -0.3 0.1 -0.6
v -0.3 0.2 0.8
v -0.3 0.2 0.7
v -0.3 0.2 0.2
v -0.3 0.2 0.1
v -0.3 0.2 -0.1
v -0.3 0.2 -0.2
v -0.3 0.2 -0.4
v -0.3 0.2 -0.5
v -0.3 0.2 -0.6
v -0.3 0.2 -0.7
v -0.3 0.2 -0.8
v -0.3 0.3 -0.4
v -0.3 0.3 -0.5
v -0.3 0.3 -0.6
v -0.3 0.3 -0.7
v -0.2 0.2 0.8
v -0.2 0.2 0.7
v -0.2 0.2 0.3
v -0.2 0.2 0.2
v -0.2 0.2 0.1
v -0.2 0.2 0
v -0.2 0.2 -0.1
v -0.2 0.2 -0.2
v -0.2 0.2 -0.4
v -0.2 0.2 -0.7
v -0.2 0.2 -0.8
v -0.2 0.3 0.8
v -0.2 0.3 0.3
v -0.2 0.3 0.2
v -0.2 0.3 0
v -0.2 0.3 -0.1
v -0.2 0.3 -0.4
v -0.2 0.3 -0.7
v -0.2 0.3 -0.8
v -0.2 0.4 -0.4
v -0.2 0.4 -0.5
v -0.2 0.4 -0.6
v -0.2 0.4 -0.7
v -0.2 0.5 -0.4
v -0.2 0.5 -0.5
v -0.2 0.5 -0.6
v -0.2 0.5 -0.7
v -0.2 0.6 -0.5
v -0.2 0.6 -0.6
v 0 0.3 0.4
v 0 0.3 0.3
v 0 0.4 0.4
v 0 0.4 0.3
v 0.1 0.3 0.5
v 0.1 0.3 0.4
v 0.1 0.3 0.3
v 0.1 0.3 0.2
v 0.1 0.4 0.5
v 0.1 0.4 0.4
v 0.1 0.4 0.3
v 0.1 0.4 0.2
v 0.1 0.5 0.4
v 0.1 0.5 0.3
v 0.2 0.3 0.6
v 0.2 0.3 0.5
v 0.2 0.3 0.2
v 0.2 0.3 0.1
v 0.2 0.4 0.6
v 0.2 0.4 0.5
v 0.2 0.4 0.4
v 0.2 0.4 0.3
v 0.2 0.4 0.2
v 0.2 0.4 0.1
v 0.2 0.5 0.5
v 0.2 0.5 0.4
v 0.2 0.5 0.3
v 0.2 0.5 0.2
v 0.2 0.6 0.4
v 0.2 0.6 0.3
v -0.3 0.4 -0.4
v -0.3 0.4 -0.5
v -0.3 0.4 -0.6
v -0.3 0.4 -0.7
v -0.3 0.5 -0.4
v -0.3 0.5 -0.5
v -0.3 0.5 -0.6
v -0.3 0.5 -0.7
v -0.3 0.6 -0.5
v -0.3 0.6 -0.6
v -0.1 0.4 -0.4
v -0.1 0.4 -0.5
v -0.1 0.4 -0.6
v -0.1 0.4 -0.7
v -0.1 0.5 -0.4
v -0.1 0.5 -0.5
v -0.1 0.5 -0.6
v -0.1 0.5 -0.7
v -0.1 0.6 -0.5
v -0.1 0.6 -0.6
v 0 0.3 -0.4
v 0 0.3 -0.5
v 0 0.3 -0.6
v 0 0.3 -0.7
v 0 0.4 -0.4
v 0 0.4 -0.5
v 0 0.4 -0.6
v 0 0.4 -0.7
v 0 0.5 -0.5
v 0 0.5 -0.6
v 0.2 0.2 0.8
v 0.2 0.2 0.7
v 0.2 0.2 0.6
v 0.2 0.2 0.5
v 0.2 0.2 0.2
v 0.2 0.2 0.1
v 0.2 0.2 0
v 0.2 0.2 -0.4
v 0.2 0.2 -0.5
v 0.2 0.2 -0.6
v 0.2 0.2 -0.8
v 0.2 0.3 0.8
v 0.2 0.3 0.6
v 0.2 0.3 0.5
v 0.2 0.3 0.2
v 0.2 0.3 0.1
v 0.2 0.3 0
v 0.2 0.3 -0.4
v 0.2 0.3 -0.5
v 0.2 0.3 -0.8
v 0.3 0 0.8
v 0.3 0 -0.8
v 0.3 0.1 0.7
v 0.3 0.1 0.5
v 0.3 0.1 0.1
v 0.3 0.1 0
v 0.3 0.1 -0.4
v 0.3 0.1 -0.6
v 0.3 0.2 0.8
v 0.3 0.2 0.7
v 0.3 0.2 0.5
v 0.3 0.2 0.2
v 0.3 0.2 0.1
v 0.3 0.2 0
v 0.3 0.2 -0.4
v 0.3 0.2 -0.6
v 0.3 0.2 -0.8
v 0.3 0.3 0.6
v 0.3 0.3 0.5
v 0.3 0.3 0.2
v 0.3 0.3 0.1
v 0.3 0.4 0.6
v 0.3 0.4 0.5
v 0.3 0.4 0.2
v 0.3 0.4 0.1
v 0.3 0.5 0.5
v 0.3 0.5 0.4
v 0.3 0.5 0.3
v 0.3 0.5 0.2
v 0.3 0.6 0.4
v 0.3 0.6 0.3
v -0.3 0 0.8
v -0.3 0.1 0.8
v -0.3 0.2 0.8
v -0.2 0.1 0.8
v -0.2 0.2 0.8
v -0.2 0.3 0.8
v 0.2 0.2 0.8
v 0.2 0.3 0.8
v 0.3 0 0.8
v 0.3 0.2 0.8
v 0.2 0.3 0.6
v 0.2 0.4 0.6
v 0.3 0.3 0.6
v 0.3 0.4 0.6
v 0.1 0.3 0.5
v 0.1 0.4 0.5
v 0.2 0.2 0.5
v 0.2 0.3 0.5
v 0.2 0.4 0.5
v 0.2 0.5 0.5
v 0.3 0.2 0.5
v 0.3 0.3 0.5
v 0.3 0.4 0.5
v 0.3 0.5 0.5
v 0 0.3 0.4
v 0 0.4 0.4
v 0.1 0.3 0.4
v 0.1 0.4 0.4
v 0.1 0.5 0.4
v 0.2 0.4 0.4
v 0.2 0.5 0.4
v 0.2 0.6 0.4
v 0.3 0.5 0.4
v 0.3 0.6 0.4
v -0.5 0.3 -0.4
v -0.5 0.4 -0.4
v -0.4 0.4 -0.4
v -0.4 0.5 -0.4
v -0.3 0.2 -0.4
v -0.3 0.3 -0.4
v -0.3 0.4 -0.4
v -0.3 0.5 -0.4
v -0.2 0.2 -0.4
v -0.2 0.3 -0.4
v -0.2 0.4 -0.4
v -0.2 0.5 -0.4
v -0.1 0.4 -0.4
v -0.1 0.5 -0.4
v 0 0.3 -0.4
v 0 0.4 -0.4
v -0.5 0.4 -0.5
v -0.5 0.5 -0.5
v -0.4 0.1 -0.5
v -0.4 0.3 -0.5
v -0.4 0.4 -0.5
v -0.4 0.5 -0.5
v -0.4 0.6 -0.5
v -0.3 0.1 -0.5
v -0.3 0.2 -0.5
v -0.3 0.3 -0.5
v -0.3 0.4 -0.5
v -0.3 0.5 -0.5
v -0.3 0.6 -0.5
v -0.2 0.4 -0.5
v -0.2 0.5 -0.5
v -0.2 0.6 -0.5
v -0.1 0.4 -0.5
v -0.1 0.5 -0.5
v -0.1 0.6 -0.5
v 0 0.4 -0.5
v 0 0.5 -0.5
v 0 0.3 0.3
v 0 0.4 0.3
v 0.1 0.3 0.3
v 0.1 0.4 0.3
v 0.1 0.5 0.3
v 0.2 0.4 0.3
v 0.2 0.5 0.3
v 0.2 0.6 0.3
v 0.3 0.5 0.3
v 0.3 0.6 0.3
v 0.1 0.3 0.2
v 0.1 0.4 0.2
v 0.2 0.2 0.2
v 0.2 0.3 0.2
v 0.2 0.4 0.2
v 0.2 0.5 0.2
v 0.3 0.2 0.2
v 0.3 0.3 0.2
v 0.3 0.4 0.2
v 0.3 0.5 0.2
v 0.2 0.3 0.1
v 0.2 0.4 0.1
v 0.3 0.3 0.1
v 0.3 0.4 0.1
v -0.5 0.4 -0.6
v -0.5 0.5 -0.6
v -0.4 0.1 -0.6
v -0.4 0.3 -0.6
v -0.4 0.4 -0.6
v -0.4 0.5 -0.6
v -0.4 0.6 -0.6
v -0.3 0.1 -0.6
v -0.3 0.2 -0.6
v -0.3 0.3 -0.6
v -0.3 0.4 -0.6
v -0.3 0.5 -0.6
v -0.3 0.6 -0.6
v -0.2 0.4 -0.6
v -0.2 0.5 -0.6
v -0.2 0.6 -0.6
v -0.1 0.4 -0.6
v -0.1 0.5 -0.6
v -0.1 0.6 -0.6
v 0 0.4 -0.6
v 0 0.5 -0.6
v -0.5 0.3 -0.7
v -0.5 0.4 -0.7
v -0.4 0.4 -0.7
v -0.4 0.5 -0.7
v -0.3 0.2 -0.7
v -0.3 0.3 -0.7
v -0.3 0.4 -0.7
v -0.3 0.5 -0.7
v -0.2 0.2 -0.7
v -0.2 0.3 -0.7
v -0.2 0.4 -0.7
v -0.2 0.5 -0.7
v -0.1 0.4 -0.7
v -0.1 0.5 -0.7
v 0 0.3 -0.7
v 0 0.4 -0.7
v -0.3 0 -0.8
v -0.3 0.2 -0.8
v -0.2 0.2 -0.8
v -0.2 0.3 -0.8
v 0.2 0.2 -0.8
v 0.2 0.3 -0.8
v 0.3 0 -0.8
v 0.3 0.2 -0.8
v -0.3 0 0.8
v 0.3 0 0.8
v -0.3 0 -0.8
v 0.3 0 -0.8
v -0.4 0.1 -0.5
v -0.3 0.1 -0.5
v -0.4 0.1 -0.6
v -0.3 0.1 -0.6
v 0.2 0.3 0.6
v 0.3 0.3 0.6
v 0.2 0.3 0.5
v 0.3 0.3 0.5
v 0.2 0.3 0.2
v 0.3 0.3 0.2
v 0.2 0.3 0.1
v 0.3 0.3 0.1
v -0.5 0.3 -0.4
v -0.3 0.3 -0.4
v -0.5 0.3 -0.5
v -0.4 0.3 -0.5
v -0.3 0.3 -0.5
v -0.5 0.3 -0.6
v -0.4 0.3 -0.6
v -0.3 0.3 -0.6
v -0.5 0.3 -0.7
v -0.3 0.3 -0.7
v -0.3 0.2 0.8
v -0.2 0.2 0.8
v 0.2 0.2 0.8
v 0.3 0.2 0.8
v -0.3 0.2 0.7
v -0.2 0.2 0.7
v 0.2 0.2 0.7
v 0.3 0.2 0.7
v 0.2 0.2 0.6
v 0.2 0.2 0.5
v 0.3 0.2 0.5
v -0.2 0.2 0.3
v -0.3 0.2 0.2
v -0.2 0.2 0.2
v 0.2 0.2 0.2
v 0.3 0.2 0.2
v -0.3 0.2 0.1
v -0.2 0.2 0.1
v 0.2 0.2 0.1
v 0.3 0.2 0.1
v -0.2 0.2 0
v 0.2 0.2 0
v 0.3 0.2 0
v -0.3 0.2 -0.1
v -0.2 0.2 -0.1
v -0.3 0.2 -0.2
v -0.2 0.2 -0.2
v -0.3 0.2 -0.4
v -0.2 0.2 -0.4
v 0.2 0.2 -0.4
v 0.3 0.2 -0.4
v 0.2 0.2 -0.5
v 0.2 0.2 -0.6
v 0.3 0.2 -0.6
v -0.3 0.2 -0.7
v -0.2 0.2 -0.7
v -0.3 0.2 -0.8
v -0.2 0.2 -0.8
v 0.2 0.2 -0.8
v 0.3 0.2 -0.8
v -0.2 0.3 0.8
v 0.2 0.3 0.8
v 0.1 0.3 0.6
v 0.2 0.3 0.6
v 0 0.3 0.5
v 0.1 0.3 0.5
v 0.2 0.3 0.5
v -0.1 0.3 0.4
v 0 0.3 0.4
v 0.1 0.3 0.4
v -0.2 0.3 0.3
v -0.1 0.3 0.3
v 0 0.3 0.3
v 0.1 0.3 0.3
v -0.2 0.3 0.2
v -0.1 0.3 0.2
v 0.1 0.3 0.2
v 0.2 0.3 0.2
v 0 0.3 0.1
v 0.2 0.3 0.1
v -0.2 0.3 0
v 0 0.3 0
v 0.2 0.3 0
v -0.2 0.3 -0.1
v 0 0.3 -0.1
v -0.2 0.3 -0.4
v 0 0.3 -0.4
v 0.1 0.3 -0.4
v 0.2 0.3 -0.4
v 0 0.3 -0.5
v 0.1 0.3 -0.5
v 0.2 0.3 -0.5
v 0 0.3 -0.6
v 0.1 0.3 -0.6
v -0.2 0.3 -0.7
v 0 0.3 -0.7
v -0.2 0.3 -0.8
v 0.2 0.3 -0.8
v 0.2 0.4 0.6
v 0.3 0.4 0.6
v 0.1 0.4 0.5
v 0.2 0.4 0.5
v 0.3 0.4 0.5
v 0 0.4 0.4
v 0.1 0.4 0.4
v 0.2 0.4 0.4
v 0 0.4 0.3
v 0.1 0.4 0.3
v 0.2 0.4 0.3
v 0.1 0.4 0.2
v 0.2 0.4 0.2
v 0.3 0.4 0.2
v 0.2 0.4 0.1
v 0.3 0.4 0.1
v -0.5 0.4 -0.4
v -0.4 0.4 -0.4
v -0.3 0.4 -0.4
v -0.2 0.4 -0.4
v -0.1 0.4 -0.4
v 0 0.4 -0.4
v -0.5 0.4 -0.5
v -0.4 0.4 -0.5
v -0.3 0.4 -0.5
v -0.2 0.4 -0.5
v -0.1 0.4 -0.5
v 0 0.4 -0.5
v -0.5 0.4 -0.6
v -0.4 0.4 -0.6
v -0.3 0.4 -0.6
v -0.2 0.4 -0.6
v -0.1 0.4 -0.6
v 0 0.4 -0.6
v -0.5 0.4 -0.7
v -0.4 0.4 -0.7
v -0.3 0.4 -0.7
v -0.2 0.4 -0.7
v -0.1 0.4 -0.7
v 0 0.4 -0.7
v 0.2 0.5 0.5
v 0.3 0.5 0.5
v 0.1 0.5 0.4
v 0.2 0.5 0.4
v 0.3 0.5 0.4
v 0.1 0.5 0.3
v 0.2 0.5 0.3
v 0.3 0.5 0.3
v 0.2 0.5 0.2
v 0.3 0.5 0.2
v -0.4 0.5 -0.4
v -0.3 0.5 -0.4
v -0.2 0.5 -0.4
v -0.1 0.5 -0.4
v -0.5 0.5 -0.5
v -0.4 0.5 -0.5
v -0.3 0.5 -0.5
v -0.2 0.5 -0.5
v -0.1 0.5 -0.5
v 0 0.5 -0.5
v -0.5 0.5 -0.6
v -0.4 0.5 -0.6
v -0.3 0.5 -0.6
v -0.2 0.5 -0.6
v -0.1 0.5 -0.6
v 0 0.5 -0.6
v -0.4 0.5 -0.7
v -0.3 0.5 -0.7
v -0.2 0.5 -0.7
v -0.1 0.5 -0.7
v 0.2 0.6 0.4
v 0.3 0.6 0.4
v 0.2 0.6 0.3
v 0.3 0.6 0.3
v -0.4 0.6 -0.5
v -0.3 0.6 -0.5
v -0.2 0.6 -0.5
v -0.1 0.6 -0.5
v -0.4 0.6 -0.6
v -0.3 0.6 -0.6
v -0.2 0.6 -0.6
v -0.1 0.6 -0.6

# faces
f 5/4/1 2/4/1 1/4/1
f 6/3/1 3/3/1 2/3/1
f 6/4/1 2/4/1 5/4/1
f 7/4/1 4/4/1 3/4/1
f 7/3/1 3/3/1 6/3/1
f 8/4/1 4/4/1 7/4/1
f 9/4/1 7/4/1 6/4/1
f 10/4/1 7/4/1 9/4/1
f 13/3/1 12/3/1 11/3/1
f 14/3/1 12/3/1 13/3/1
f 19/4/1 16/4/1 15/4/1
f 20/4/1 16/4/1 19/4/1
f 21/4/1 18/4/1 17/4/1
f 22/4/1 18/4/1 21/4/1
f 23/4/1 21/4/1 20/4/1
f 24/4/1 21/4/1 23/4/1
f 27/1/1 26/1/1 25/1/1
f 28/1/1 26/1/1 27/1/1
f 29/1/1 26/1/1 28/1/1
f 30/1/1 26/1/1 29/1/1
f 31/1/1 26/1/1 30/1/1
f 32/1/1 26/1/1 31/1/1
f 33/1/1 26/1/1 32/1/1
f 34/1/1 26/1/1 33/1/1
f 35/2/1 28/2/1 27/2/1
f 36/1/1 29/1/1 28/1/1
f 36/2/1 28/2/1 35/2/1
f 37/2/1 30/2/1 29/2/1
f 37/1/1 29/1/1 36/1/1
f 38/1/1 31/1/1 30/1/1
f 38/2/1 30/2/1 37/2/1
f 39/2/1 32/2/1 31/2/1
f 39/1/1 31/1/1 38/1/1
f 40/1/1 33/1/1 32/1/1
f 40/2/1 32/2/1 39/2/1
f 41/1/1 33/1/1 40/1/1
f 42/1/1 33/1/1 41/1/1
f 43/1/1 26/1/1 34/1/1
f 44/1/1 26/1/1 43/1/1
f 45/1/1 26/1/1 44/1/1
f 46/4/1 42/4/1 41/4/1
f 47/4/1 42/4/1 46/4/1
f 48/4/1 44/4/1 43/4/1
f 49/4/1 44/4/1 48/4/1
f 61/1/1 51/1/1 50/1/1
f 61/1/1 52/1/1 51/1/1
f 62/2/1 53/2/1 52/2/1
f 62/1/1 52/1/1 61/1/1
f 63/1/1 54/1/1 53/1/1
f 63/2/1 53/2/1 62/2/1
f 63/1/1 55/1/1 54/1/1
f 64/2/1 56/2/1 55/2/1
f 64/1/1 55/1/1 63/1/1
f 65/1/1 58/1/1 57/1/1
f 65/2/1 56/2/1 64/2/1
f 65/1/1 57/1/1 56/1/1
f 66/1/1 58/1/1 65/1/1
f 67/1/1 60/1/1 59/1/1
f 68/1/1 60/1/1 67/1/1
f 73/4/1 70/4/1 69/4/1
f 74/4/1 70/4/1 73/4/1
f 75/4/1 72/4/1 71/4/1
f 76/4/1 72/4/1 75/4/1
f 77/4/1 75/4/1 74/4/1
f 78/4/1 75/4/1 77/4/1
f 81/4/1 80/4/1 79/4/1
f 82/4/1 80/4/1 81/4/1
f 87/4/1 84/4/1 83/4/1
f 88/4/1 84/4/1 87/4/1
f 89/4/1 86/4/1 85/4/1
f 90/4/1 86/4/1 89/4/1
f 91/4/1 89/4/1 88/4/1
f 92/4/1 89/4/1 91/4/1
f 97/4/1 94/4/1 93/4/1
f 98/4/1 94/4/1 97/4/1
f 101/4/1 96/4/1 95/4/1
f 102/4/1 96/4/1 101/4/1
f 103/4/1 99/4/1 98/4/1
f 104/4/1 99/4/1 103/4/1
f 105/4/1 101/4/1 100/4/1
f 106/4/1 101/4/1 105/4/1
f 107/4/1 105/4/1 104/4/1
f 108/4/1 105/4/1 107/4/1
f 109/4/2 110/4/2 113/4/2
f 113/4/2 110/4/2 114/4/2
f 111/4/2 112/4/2 115/4/2
f 115/4/2 112/4/2 116/4/2
f 114/4/2 115/4/2 117/4/2
f 117/4/2 115/4/2 118/4/2
f 119/4/2 120/4/2 123/4/2
f 123/4/2 120/4/2 124/4/2
f 121/4/2 122/4/2 125/4/2
f 125/4/2 122/4/2 126/4/2
f 124/4/2 125/4/2 127/4/2
f 127/4/2 125/4/2 128/4/2
f 129/4/2 130/4/2 133/4/2
f 130/3/2 131/3/2 134/3/2
f 133/4/2 130/4/2 134/4/2
f 131/4/2 132/4/2 135/4/2
f 134/3/2 131/3/2 135/3/2
f 135/4/2 132/4/2 136/4/2
f 134/4/2 135/4/2 137/4/2
f 137/4/2 135/4/2 138/4/2
f 139/1/2 140/1/2 150/1/2
f 140/1/2 141/1/2 150/1/2
f 141/2/2 142/2/2 151/2/2
f 150/1/2 141/1/2 151/1/2
f 151/2/2 142/2/2 152/2/2
f 143/1/2 144/1/2 153/1/2
f 144/2/2 145/2/2 154/2/2
f 153/1/2 144/1/2 154/1/2
f 145/1/2 146/1/2 155/1/2
f 154/2/2 145/2/2 155/2/2
f 146/2/2 147/2/2 156/2/2
f 155/1/2 146/1/2 156/1/2
f 148/1/2 149/1/2 157/1/2
f 156/2/2 147/2/2 157/2/2
f 147/1/2 148/1/2 157/1/2
f 157/1/2 149/1/2 158/1/2
f 159/1/2 160/1/2 161/1/2
f 161/1/2 160/1/2 162/1/2
f 162/1/2 160/1/2 163/1/2
f 163/1/2 160/1/2 164/1/2
f 164/1/2 160/1/2 165/1/2
f 165/1/2 160/1/2 166/1/2
f 159/1/2 161/1/2 167/1/2
f 161/2/2 162/2/2 168/2/2
f 167/1/2 161/1/2 168/1/2
f 162/1/2 163/1/2 169/1/2
f 168/2/2 162/2/2 169/2/2
f 169/1/2 163/1/2 170/1/2
f 163/2/2 164/2/2 171/2/2
f 170/1/2 163/1/2 171/1/2
f 164/1/2 165/1/2 172/1/2
f 171/2/2 164/2/2 172/2/2
f 165/2/2 166/2/2 173/2/2
f 172/1/2 165/1/2 173/1/2
f 166/1/2 160/1/2 174/1/2
f 173/2/2 166/2/2 174/2/2
f 174/1/2 160/1/2 175/1/2
f 169/3/2 170/3/2 177/3/2
f 177/3/2 170/3/2 178/3/2
f 176/4/2 177/4/2 180/4/2
f 177/3/2 178/3/2 181/3/2
f 180/4/2 177/4/2 181/4/2
f 178/4/2 179/4/2 182/4/2
f 181/3/2 178/3/2 182/3/2
f 182/4/2 179/4/2 183/4/2
f 181/4/2 182/4/2 184/4/2
f 184/4/2 182/4/2 185/4/2
f 185/4/2 182/4/2 186/4/2
f 186/4/2 182/4/2 187/4/2
f 185/4/2 186/4/2 188/4/2
f 188/4/2 186/4/2 189/4/2
f 193/1/3 191/1/3 190/1/3
f 193/2/3 192/2/3 191/2/3
f 194/2/3 192/2/3 193/2/3
f 196/1/3 194/1/3 193/1/3
f 196/1/3 195/1/3 194/1/3
f 197/1/3 195/1/3 196/1/3
f 198/1/3 193/1/3 190/1/3
f 198/1/3 196/1/3 193/1/3
f 199/1/3 196/1/3 198/1/3
f 202/4/3 201/4/3 200/4/3
f 203/4/3 201/4/3 202/4/3
f 207/4/3 205/4/3 204/4/3
f 208/4/3 205/4/3 207/4/3
f 210/3/3 207/3/3 206/3/3
f 211/3/3 207/3/3 210/3/3
f 212/4/3 209/4/3 208/4/3
f 213/4/3 209/4/3 212/4/3
f 216/4/3 215/4/3 214/4/3
f 217/4/3 215/4/3 216/4/3
f 219/4/3 218/4/3 217/4/3
f 220/4/3 218/4/3 219/4/3
f 222/4/3 221/4/3 220/4/3
f 223/4/3 221/4/3 222/4/3
f 226/4/3 225/4/3 224/4/3
f 229/4/3 226/4/3 224/4/3
f 229/4/3 227/4/3 226/4/3
f 230/4/3 227/4/3 229/4/3
f 231/4/3 227/4/3 230/4/3
f 232/4/3 229/4/3 228/4/3
f 232/4/3 230/4/3 229/4/3
f 233/4/3 230/4/3 232/4/3
f 234/4/3 230/4/3 233/4/3
f 236/4/3 235/4/3 234/4/3
f 236/4/3 234/4/3 233/4/3
f 237/4/3 235/4/3 236/4/3
f 238/4/3 236/4/3 233/4/3
f 239/4/3 236/4/3 238/4/3
f 244/4/3 241/4/3 240/4/3
f 245/4/3 241/4/3 244/4/3
f 247/3/3 243/3/3 242/3/3
f 248/3/3 243/3/3 247/3/3
f 249/3/3 243/3/3 248/3/3
f 251/4/3 246/4/3 245/4/3
f 252/4/3 246/4/3 251/4/3
f 253/4/3 251/4/3 250/4/3
f 254/4/3 251/4/3 253/4/3
f 257/4/3 255/4/3 254/4/3
f 258/4/3 255/4/3 257/4/3
f 259/4/3 257/4/3 256/4/3
f 260/4/3 257/4/3 259/4/3
f 261/4/4 262/4/4 263/4/4
f 263/4/4 262/4/4 264/4/4
f 264/4/4 265/4/4 266/4/4
f 266/4/4 265/4/4 267/4/4
f 267/4/4 268/4/4 269/4/4
f 269/4/4 268/4/4 270/4/4
f 271/4/4 272/4/4 274/4/4
f 274/4/4 272/4/4 275/4/4
f 273/3/4 274/3/4 277/3/4
f 277/3/4 274/3/4 278/3/4
f 275/4/4 276/4/4 279/4/4
f 279/4/4 276/4/4 280/4/4
f 281/4/4 282/4/4 283/4/4
f 283/4/4 282/4/4 284/4/4
f 285/4/4 286/4/4 289/4/4
f 289/4/4 286/4/4 290/4/4
f 287/3/4 288/3/4 292/3/4
f 292/3/4 288/3/4 293/3/4
f 293/3/4 288/3/4 294/3/4
f 290/4/4 291/4/4 296/4/4
f 296/4/4 291/4/4 297/4/4
f 295/4/4 296/4/4 298/4/4
f 298/4/4 296/4/4 299/4/4
f 299/4/4 300/4/4 302/4/4
f 302/4/4 300/4/4 303/4/4
f 301/4/4 302/4/4 304/4/4
f 304/4/4 302/4/4 305/4/4
f 306/4/4 307/4/4 308/4/4
f 306/4/4 308/4/4 311/4/4
f 308/4/4 309/4/4 311/4/4
f 311/4/4 309/4/4 312/4/4
f 312/4/4 309/4/4 313/4/4
f 310/4/4 311/4/4 314/4/4
f 311/4/4 312/4/4 314/4/4
f 314/4/4 312/4/4 315/4/4
f 315/4/4 312/4/4 316/4/4
f 316/4/4 317/4/4 318/4/4
f 315/4/4 316/4/4 318/4/4
f 318/4/4 317/4/4 319/4/4
f 315/4/4 318/4/4 320/4/4
f 320/4/4 318/4/4 321/4/4
f 322/1/4 323/1/4 324/1/4
f 322/1/4 324/1/4 326/1/4
f 324/1/4 325/1/4 326/1/4
f 326/1/4 325/1/4 327/1/4
f 322/1/4 326/1/4 328/1/4
f 328/1/4 326/1/4 329/1/4
f 332/1/5 331/1/5 330/1/5
f 333/1/5 331/1/5 332/1/5
f 336/3/5 335/3/5 334/3/5
f 337/3/5 335/3/5 336/3/5
f 340/4/5 339/4/5 338/4/5
f 341/4/5 339/4/5 340/4/5
f 344/4/5 343/4/5 342/4/5
f 345/4/5 343/4/5 344/4/5
f 348/4/5 347/4/5 346/4/5
f 349/4/5 347/4/5 348/4/5
f 350/4/5 347/4/5 349/4/5
f 351/3/5 349/3/5 348/3/5
f 352/3/5 349/3/5 351/3/5
f 354/4/5 352/4/5 351/4/5
f 354/4/5 353/4/5 352/4/5
f 355/4/5 353/4/5 354/4/5
f 356/2/6 357/2/6 360/2/6
f 360/2/6 357/2/6 361/2/6
f 358/1/6 359/1/6 362/1/6
f 362/1/6 359/1/6 363/1/6
f 362/2/6 363/2/6 364/2/6
f 364/2/6 363/2/6 365/2/6
f 365/2/6 363/2/6 366/2/6
f 360/1/6 361/1/6 367/1/6
f 360/1/6 367/1/6 368/1/6
f 368/1/6 367/1/6 369/1/6
f 368/2/6 369/2/6 372/2/6
f 372/2/6 369/2/6 373/2/6
f 370/1/6 371/1/6 374/1/6
f 374/1/6 371/1/6 375/1/6
f 372/1/6 373/1/6 376/1/6
f 374/2/6 375/2/6 377/2/6
f 377/2/6 375/2/6 378/2/6
f 372/1/6 376/1/6 379/1/6
f 379/1/6 376/1/6 380/1/6
f 379/2/6 380/2/6 381/2/6
f 381/2/6 380/2/6 382/2/6
f 381/1/6 382/1/6 383/1/6
f 383/1/6 382/1/6 384/1/6
f 377/1/6 378/1/6 385/1/6
f 385/1/6 378/1/6 386/1/6
f 385/2/6 386/2/6 387/2/6
f 387/2/6 386/2/6 388/2/6
f 388/2/6 386/2/6 389/2/6
f 390/1/6 391/1/6 392/1/6
f 392/1/6 391/1/6 393/1/6
f 388/1/6 389/1/6 394/1/6
f 394/1/6 389/1/6 395/1/6
f 396/1/6 397/1/6 398/1/6
f 398/1/6 397/1/6 399/1/6
f 396/1/6 398/1/6 400/1/6
f 398/2/6 399/2/6 401/2/6
f 400/1/6 398/1/6 401/1/6
f 401/2/6 399/2/6 402/2/6
f 396/1/6 400/1/6 403/1/6
f 400/2/6 401/2/6 404/2/6
f 403/1/6 400/1/6 404/1/6
f 404/2/6 401/2/6 405/2/6
f 396/1/6 403/1/6 406/1/6
f 403/2/6 404/2/6 407/2/6
f 406/1/6 403/1/6 407/1/6
f 407/2/6 404/2/6 408/2/6
f 406/2/6 407/2/6 410/2/6
f 408/1/6 409/1/6 411/1/6
f 410/2/6 407/2/6 411/2/6
f 407/1/6 408/1/6 411/1/6
f 411/1/6 409/1/6 412/1/6
f 411/1/6 412/1/6 414/1/6
f 412/1/6 413/1/6 414/1/6
f 410/1/6 411/1/6 414/1/6
f 414/1/6 413/1/6 415/1/6
f 410/1/6 414/1/6 416/1/6
f 414/2/6 415/2/6 417/2/6
f 416/1/6 414/1/6 417/1/6
f 417/2/6 415/2/6 418/2/6
f 416/2/6 417/2/6 419/2/6
f 417/1/6 418/1/6 420/1/6
f 419/2/6 417/2/6 420/2/6
f 419/1/6 420/1/6 421/1/6
f 420/1/6 418/1/6 422/1/6
f 421/1/6 420/1/6 422/1/6
f 422/1/6 418/1/6 423/1/6
f 423/1/6 418/1/6 424/1/6
f 422/1/6 423/1/6 425/1/6
f 423/2/6 424/2/6 426/2/6
f 425/1/6 423/1/6 426/1/6
f 426/2/6 424/2/6 427/2/6
f 425/2/6 426/2/6 428/2/6
f 426/1/6 427/1/6 429/1/6
f 428/2/6 426/2/6 429/2/6
f 428/1/6 429/1/6 431/1/6
f 430/1/6 431/1/6 432/1/6
f 429/1/6 427/1/6 433/1/6
f 432/1/6 431/1/6 433/1/6
f 431/1/6 429/1/6 433/1/6
f 434/4/6 435/4/6 437/4/6
f 437/4/6 435/4/6 438/4/6
f 436/4/6 437/4/6 440/4/6
f 440/4/6 437/4/6 441/4/6
f 439/4/6 440/4/6 442/4/6
f 442/4/6 440/4/6 443/4/6
f 443/4/6 444/4/6 445/4/6
f 445/4/6 444/4/6 446/4/6
f 446/4/6 447/4/6 448/4/6
f 448/4/6 447/4/6 449/4/6
f 450/4/6 451/4/6 456/4/6
f 456/4/6 451/4/6 457/4/6
f 452/4/6 453/4/6 458/4/6
f 458/4/6 453/4/6 459/4/6
f 454/4/6 455/4/6 460/4/6
f 460/4/6 455/4/6 461/4/6
f 462/4/6 463/4/6 468/4/6
f 468/4/6 463/4/6 469/4/6
f 464/4/6 465/4/6 470/4/6
f 470/4/6 465/4/6 471/4/6
f 466/4/6 467/4/6 472/4/6
f 472/4/6 467/4/6 473/4/6
f 474/4/6 475/4/6 477/4/6
f 477/4/6 475/4/6 478/4/6
f 476/4/6 477/4/6 479/4/6
f 479/4/6 477/4/6 480/4/6
f 480/4/6 481/4/6 482/4/6
f 482/4/6 481/4/6 483/4/6
f 484/4/6 485/4/6 489/4/6
f 489/4/6 485/4/6 490/4/6
f 486/4/6 487/4/6 491/4/6
f 491/4/6 487/4/6 492/4/6
f 488/4/6 489/4/6 494/4/6
f 494/4/6 489/4/6 495/4/6
f 490/4/6 491/4/6 496/4/6
f 496/4/6 491/4/6 497/4/6
f 492/4/6 493/4/6 498/4/6
f 498/4/6 493/4/6 499/4/6
f 495/4/6 496/4/6 500/4/6
f 500/4/6 496/4/6 501/4/6
f 497/4/6 498/4/6 502/4/6
f 502/4/6 498/4/6 503/4/6
f 504/4/6 505/4/6 506/4/6
f 506/4/6 505/4/6 507/4/6
f 508/4/6 509/4/6 512/4/6
f 512/4/6 509/4/6 513/4/6
f 510/4/6 511/4/6 514/4/6
f 514/4/6 511/4/6 515/4/6
