# MagicaVoxel @ Ephtracy

# group
o 

# material
mtllib 4_ из широкой в узкую.mtl
usemtl palette

# normals
vn -1 0 0
vn 1 0 0
vn 0 0 1
vn 0 0 -1
vn 0 -1 0
vn 0 1 0

# texcoords
vt 0.00195313 0.5
vt 0.00585938 0.5
vt 0.0214844 0.5
vt 0.0488281 0.5
vt 0.0527344 0.5
vt 0.0566406 0.5

# verts
v -0.6 0 0.8
v -0.6 0 0
v -0.6 0.3 0.8
v -0.6 0.3 0.6
v -0.6 0.3 0.2
v -0.6 0.3 0
v -0.6 0.4 0.8
v -0.6 0.4 0.6
v -0.6 0.4 0.2
v -0.6 0.4 0.1
v -0.6 0.4 0
v -0.6 0.5 0.2
v -0.6 0.5 0.1
v -0.6 0.6 0.3
v -0.6 0.6 0.2
v -0.6 0.6 0.1
v -0.6 0.6 0
v -0.6 0.7 0.1
v -0.6 0.7 0
v -0.6 0.8 0.2
v -0.6 0.8 0.1
v -0.6 0.9 0.3
v -0.6 0.9 0.2
v -0.5 0.5 0.3
v -0.5 0.5 0.2
v -0.5 0.5 0.1
v -0.5 0.5 0
v -0.5 0.6 0.3
v -0.5 0.6 0.2
v -0.5 0.6 0.1
v -0.5 0.6 0
v -0.5 0.7 0.1
v -0.5 0.7 0
v -0.5 0.8 0.2
v -0.5 0.8 0.1
v -0.5 0.8 0
v -0.5 0.9 0.2
v -0.5 1 0.2
v -0.5 1 0.1
v -0.3 0 0
v -0.3 0 -0.8
v -0.3 0.1 -0.3
v -0.3 0.1 -0.5
v -0.3 0.2 0
v -0.3 0.2 -0.3
v -0.3 0.2 -0.5
v -0.3 0.2 -0.8
v -0.2 0.2 0
v -0.2 0.2 -0.1
v -0.2 0.2 -0.3
v -0.2 0.2 -0.4
v -0.2 0.2 -0.5
v -0.2 0.2 -0.8
v -0.2 0.3 0
v -0.2 0.3 -0.1
v -0.2 0.3 -0.3
v -0.2 0.3 -0.4
v -0.2 0.3 -0.8
v 0.4 0.3 0.1
v 0.4 0.3 0
v 0.4 0.4 0.1
v 0.4 0.4 0
v 0.5 0.3 0.8
v 0.5 0.3 0.6
v 0.5 0.3 0.4
v 0.5 0.3 0.2
v 0.5 0.3 0.1
v 0.5 0.4 0.8
v 0.5 0.4 0.6
v 0.5 0.4 0.4
v 0.5 0.4 0.2
v 0.5 0.4 0.1
v -0.5 0.3 0.8
v -0.5 0.3 0.6
v -0.5 0.3 0.4
v -0.5 0.3 0.3
v -0.5 0.4 0.8
v -0.5 0.4 0.6
v -0.5 0.4 0.3
v -0.5 0.8 0.3
v -0.5 0.8 0.2
v -0.5 0.9 0.3
v -0.5 0.9 0.2
v -0.4 0.3 0.3
v -0.4 0.3 0.2
v -0.4 0.4 0.3
v -0.4 0.4 0.2
v -0.4 0.4 0.1
v -0.4 0.5 0.3
v -0.4 0.5 0.2
v -0.4 0.5 0.1
v -0.4 0.5 0
v -0.4 0.6 0.3
v -0.4 0.6 0.2
v -0.4 0.6 0.1
v -0.4 0.6 0
v -0.4 0.7 0.3
v -0.4 0.7 0.2
v -0.4 0.7 0.1
v -0.4 0.7 0
v -0.4 0.8 0.3
v -0.4 0.8 0.2
v -0.4 0.8 0.1
v -0.4 0.8 0
v -0.4 0.9 0.2
v -0.4 0.9 0.1
v -0.4 1 0.2
v -0.4 1 0.1
v -0.3 0.3 0.2
v -0.3 0.3 0.1
v -0.3 0.4 0.2
v -0.3 0.4 0.1
v -0.3 0.6 0.3
v -0.3 0.6 0.2
v -0.3 0.6 0.1
v -0.3 0.6 0
v -0.3 0.7 0.3
v -0.3 0.7 0.2
v -0.3 0.7 0.1
v -0.3 0.7 0
v -0.3 0.9 0.2
v -0.3 0.9 0.1
v -0.2 0.3 0.1
v -0.2 0.3 0
v -0.2 0.4 0.1
v -0.2 0.4 0
v -0.2 0.6 0.2
v -0.2 0.6 0.1
v -0.2 0.7 0.2
v -0.2 0.7 0.1
v 0.2 0.2 0
v 0.2 0.2 -0.2
v 0.2 0.2 -0.4
v 0.2 0.2 -0.6
v 0.2 0.2 -0.7
v 0.2 0.2 -0.8
v 0.2 0.3 0
v 0.2 0.3 -0.4
v 0.2 0.3 -0.6
v 0.2 0.3 -0.8
v 0.3 0 0
v 0.3 0 -0.8
v 0.3 0.1 0
v 0.3 0.1 -0.2
v 0.3 0.1 -0.6
v 0.3 0.1 -0.7
v 0.3 0.2 0
v 0.3 0.2 -0.2
v 0.3 0.2 -0.6
v 0.3 0.2 -0.7
v 0.3 0.2 -0.8
v 0.6 0 0.8
v 0.6 0 0
v 0.6 0.3 0.8
v 0.6 0.3 0.6
v 0.6 0.3 0.4
v 0.6 0.3 0.2
v 0.6 0.4 0.8
v 0.6 0.4 0.6
v 0.6 0.4 0.4
v 0.6 0.4 0.2
v 0.6 0.4 0
v -0.6 0 0.8
v -0.6 0.3 0.8
v -0.6 0.4 0.8
v -0.5 0.2 0.8
v -0.5 0.3 0.8
v -0.5 0.4 0.8
v -0.4 0.2 0.8
v -0.4 0.3 0.8
v 0 0.2 0.8
v 0 0.3 0.8
v 0.1 0.2 0.8
v 0.1 0.3 0.8
v 0.2 0.2 0.8
v 0.2 0.3 0.8
v 0.3 0.2 0.8
v 0.3 0.3 0.8
v 0.5 0.2 0.8
v 0.5 0.3 0.8
v 0.5 0.4 0.8
v 0.6 0 0.8
v 0.6 0.3 0.8
v 0.6 0.4 0.8
v -0.6 0.6 0.3
v -0.6 0.9 0.3
v -0.5 0.3 0.3
v -0.5 0.4 0.3
v -0.5 0.5 0.3
v -0.5 0.6 0.3
v -0.5 0.8 0.3
v -0.5 0.9 0.3
v -0.4 0.3 0.3
v -0.4 0.4 0.3
v -0.4 0.5 0.3
v -0.4 0.6 0.3
v -0.4 0.7 0.3
v -0.4 0.8 0.3
v -0.3 0.6 0.3
v -0.3 0.7 0.3
v -0.6 0.4 0.2
v -0.6 0.5 0.2
v -0.6 0.6 0.2
v -0.5 0.4 0.2
v -0.5 0.5 0.2
v -0.5 0.6 0.2
v -0.5 0.8 0.2
v -0.5 0.9 0.2
v -0.5 1 0.2
v -0.4 0.3 0.2
v -0.4 0.4 0.2
v -0.4 0.5 0.2
v -0.4 0.7 0.2
v -0.4 0.8 0.2
v -0.4 0.9 0.2
v -0.4 1 0.2
v -0.3 0.3 0.2
v -0.3 0.4 0.2
v -0.3 0.6 0.2
v -0.3 0.7 0.2
v -0.3 0.9 0.2
v -0.2 0.6 0.2
v -0.2 0.7 0.2
v -0.3 0.3 0.1
v -0.3 0.4 0.1
v -0.2 0.3 0.1
v -0.2 0.4 0.1
v 0.4 0.3 0.1
v 0.4 0.4 0.1
v 0.5 0.3 0.1
v 0.5 0.4 0.1
v -0.6 0.8 0.2
v -0.6 0.9 0.2
v -0.5 0.8 0.2
v -0.5 0.9 0.2
v -0.6 0.4 0.1
v -0.6 0.5 0.1
v -0.6 0.6 0.1
v -0.6 0.7 0.1
v -0.6 0.8 0.1
v -0.5 0.5 0.1
v -0.5 0.6 0.1
v -0.5 0.7 0.1
v -0.5 0.8 0.1
v -0.5 1 0.1
v -0.4 0.4 0.1
v -0.4 0.5 0.1
v -0.4 0.7 0.1
v -0.4 0.8 0.1
v -0.4 0.9 0.1
v -0.4 1 0.1
v -0.3 0.6 0.1
v -0.3 0.7 0.1
v -0.3 0.9 0.1
v -0.2 0.6 0.1
v -0.2 0.7 0.1
v -0.6 0 0
v -0.6 0.3 0
v -0.6 0.4 0
v -0.6 0.6 0
v -0.6 0.7 0
v -0.5 0.5 0
v -0.5 0.6 0
v -0.5 0.7 0
v -0.5 0.8 0
v -0.4 0.3 0
v -0.4 0.4 0
v -0.4 0.5 0
v -0.4 0.6 0
v -0.4 0.7 0
v -0.4 0.8 0
v -0.3 0 0
v -0.3 0.2 0
v -0.3 0.3 0
v -0.3 0.6 0
v -0.3 0.7 0
v -0.2 0.2 0
v -0.2 0.3 0
v -0.2 0.4 0
v 0.2 0.2 0
v 0.2 0.3 0
v 0.3 0 0
v 0.3 0.1 0
v 0.3 0.2 0
v 0.3 0.3 0
v 0.4 0.3 0
v 0.4 0.4 0
v 0.6 0 0
v 0.6 0.4 0
v -0.3 0 -0.8
v -0.3 0.2 -0.8
v -0.2 0.2 -0.8
v -0.2 0.3 -0.8
v 0.2 0.2 -0.8
v 0.2 0.3 -0.8
v 0.3 0 -0.8
v 0.3 0.2 -0.8
v -0.6 0 0.8
v 0.6 0 0.8
v -0.6 0 0
v -0.3 0 0
v 0.3 0 0
v 0.6 0 0
v -0.3 0 -0.8
v 0.3 0 -0.8
v -0.5 0.5 0.3
v -0.4 0.5 0.3
v -0.5 0.5 0.2
v -0.4 0.5 0.2
v -0.5 0.5 0.1
v -0.4 0.5 0.1
v -0.5 0.5 0
v -0.4 0.5 0
v -0.6 0.6 0.3
v -0.5 0.6 0.3
v -0.4 0.6 0.3
v -0.3 0.6 0.3
v -0.6 0.6 0.2
v -0.5 0.6 0.2
v -0.4 0.6 0.2
v -0.3 0.6 0.2
v -0.2 0.6 0.2
v -0.6 0.6 0.1
v -0.5 0.6 0.1
v -0.4 0.6 0.1
v -0.3 0.6 0.1
v -0.2 0.6 0.1
v -0.6 0.6 0
v -0.5 0.6 0
v -0.4 0.6 0
v -0.3 0.6 0
v -0.3 0.2 0
v -0.2 0.2 0
v 0.2 0.2 0
v 0.3 0.2 0
v -0.2 0.2 -0.1
v 0.2 0.2 -0.2
v 0.3 0.2 -0.2
v -0.3 0.2 -0.3
v -0.2 0.2 -0.3
v -0.2 0.2 -0.4
v 0.2 0.2 -0.4
v -0.3 0.2 -0.5
v -0.2 0.2 -0.5
v 0.2 0.2 -0.6
v 0.3 0.2 -0.6
v 0.2 0.2 -0.7
v 0.3 0.2 -0.7
v -0.3 0.2 -0.8
v -0.2 0.2 -0.8
v 0.2 0.2 -0.8
v 0.3 0.2 -0.8
v -0.5 0.3 0.8
v -0.4 0.3 0.8
v 0 0.3 0.8
v 0.1 0.3 0.8
v 0.2 0.3 0.8
v 0.3 0.3 0.8
v 0.5 0.3 0.8
v 0 0.3 0.7
v 0.1 0.3 0.7
v 0.2 0.3 0.7
v 0.3 0.3 0.7
v -0.5 0.3 0.6
v -0.4 0.3 0.6
v -0.3 0.3 0.6
v -0.2 0.3 0.6
v 0.1 0.3 0.6
v 0.2 0.3 0.6
v 0.4 0.3 0.6
v 0.5 0.3 0.6
v -0.3 0.3 0.5
v -0.2 0.3 0.5
v -0.5 0.3 0.4
v -0.4 0.3 0.4
v 0.3 0.3 0.4
v 0.4 0.3 0.4
v 0.5 0.3 0.4
v -0.5 0.3 0.3
v -0.4 0.3 0.3
v -0.3 0.3 0.3
v -0.2 0.3 0.3
v -0.1 0.3 0.3
v 0 0.3 0.3
v 0.1 0.3 0.3
v 0.2 0.3 0.3
v 0.3 0.3 0.3
v 0.4 0.3 0.3
v -0.4 0.3 0.2
v -0.3 0.3 0.2
v -0.2 0.3 0.2
v -0.1 0.3 0.2
v 0 0.3 0.2
v 0.1 0.3 0.2
v 0.2 0.3 0.2
v 0.3 0.3 0.2
v 0.5 0.3 0.2
v -0.3 0.3 0.1
v -0.2 0.3 0.1
v -0.1 0.3 0.1
v 0 0.3 0.1
v 0.1 0.3 0.1
v 0.2 0.3 0.1
v 0.3 0.3 0.1
v 0.4 0.3 0.1
v 0.5 0.3 0.1
v -0.2 0.3 0
v -0.1 0.3 0
v 0 0.3 0
v 0.1 0.3 0
v 0.2 0.3 0
v 0.3 0.3 0
v 0.4 0.3 0
v -0.2 0.3 -0.1
v 0 0.3 -0.1
v -0.2 0.3 -0.3
v 0.1 0.3 -0.3
v -0.2 0.3 -0.4
v 0 0.3 -0.4
v 0.1 0.3 -0.4
v 0.2 0.3 -0.4
v 0 0.3 -0.5
v 0.1 0.3 -0.5
v 0.1 0.3 -0.6
v 0.2 0.3 -0.6
v -0.2 0.3 -0.8
v 0.2 0.3 -0.8
v -0.6 0.4 0.8
v -0.5 0.4 0.8
v 0.5 0.4 0.8
v 0.6 0.4 0.8
v -0.6 0.4 0.6
v -0.5 0.4 0.6
v 0.5 0.4 0.6
v 0.6 0.4 0.6
v 0.5 0.4 0.4
v 0.6 0.4 0.4
v -0.5 0.4 0.3
v -0.4 0.4 0.3
v -0.6 0.4 0.2
v -0.5 0.4 0.2
v -0.4 0.4 0.2
v -0.3 0.4 0.2
v 0.5 0.4 0.2
v 0.6 0.4 0.2
v -0.6 0.4 0.1
v -0.4 0.4 0.1
v -0.3 0.4 0.1
v -0.2 0.4 0.1
v 0.4 0.4 0.1
v 0.5 0.4 0.1
v -0.6 0.4 0
v -0.4 0.4 0
v -0.2 0.4 0
v 0.4 0.4 0
v 0.6 0.4 0
v -0.4 0.7 0.3
v -0.3 0.7 0.3
v -0.4 0.7 0.2
v -0.3 0.7 0.2
v -0.2 0.7 0.2
v -0.6 0.7 0.1
v -0.5 0.7 0.1
v -0.4 0.7 0.1
v -0.3 0.7 0.1
v -0.2 0.7 0.1
v -0.6 0.7 0
v -0.5 0.7 0
v -0.4 0.7 0
v -0.3 0.7 0
v -0.5 0.8 0.3
v -0.4 0.8 0.3
v -0.6 0.8 0.2
v -0.5 0.8 0.2
v -0.4 0.8 0.2
v -0.6 0.8 0.1
v -0.5 0.8 0.1
v -0.4 0.8 0.1
v -0.5 0.8 0
v -0.4 0.8 0
v -0.6 0.9 0.3
v -0.5 0.9 0.3
v -0.6 0.9 0.2
v -0.5 0.9 0.2
v -0.4 0.9 0.2
v -0.3 0.9 0.2
v -0.4 0.9 0.1
v -0.3 0.9 0.1
v -0.5 1 0.2
v -0.4 1 0.2
v -0.5 1 0.1
v -0.4 1 0.1

# faces
f 3/1/1 2/1/1 1/1/1
f 4/1/1 2/1/1 3/1/1
f 5/1/1 2/1/1 4/1/1
f 6/1/1 2/1/1 5/1/1
f 7/2/1 4/2/1 3/2/1
f 8/1/1 5/1/1 4/1/1
f 8/2/1 4/2/1 7/2/1
f 9/2/1 6/2/1 5/2/1
f 9/1/1 5/1/1 8/1/1
f 10/2/1 6/2/1 9/2/1
f 11/2/1 6/2/1 10/2/1
f 12/3/1 10/3/1 9/3/1
f 13/3/1 10/3/1 12/3/1
f 15/6/1 13/6/1 12/6/1
f 16/6/1 13/6/1 15/6/1
f 18/6/1 16/6/1 15/6/1
f 18/6/1 17/6/1 16/6/1
f 18/6/1 15/6/1 14/6/1
f 19/6/1 17/6/1 18/6/1
f 20/6/1 18/6/1 14/6/1
f 21/6/1 18/6/1 20/6/1
f 22/6/1 20/6/1 14/6/1
f 23/6/1 20/6/1 22/6/1
f 28/6/1 25/6/1 24/6/1
f 29/6/1 25/6/1 28/6/1
f 30/6/1 27/6/1 26/6/1
f 31/6/1 27/6/1 30/6/1
f 35/6/1 33/6/1 32/6/1
f 36/6/1 33/6/1 35/6/1
f 37/6/1 35/6/1 34/6/1
f 38/6/1 35/6/1 37/6/1
f 39/6/1 35/6/1 38/6/1
f 42/1/1 41/1/1 40/1/1
f 43/1/1 41/1/1 42/1/1
f 44/1/1 42/1/1 40/1/1
f 45/2/1 43/2/1 42/2/1
f 45/1/1 42/1/1 44/1/1
f 46/1/1 41/1/1 43/1/1
f 46/2/1 43/2/1 45/2/1
f 47/1/1 41/1/1 46/1/1
f 54/3/1 49/3/1 48/3/1
f 55/1/1 50/1/1 49/1/1
f 55/3/1 49/3/1 54/3/1
f 56/2/1 51/2/1 50/2/1
f 56/1/1 50/1/1 55/1/1
f 57/1/1 53/1/1 52/1/1
f 57/2/1 51/2/1 56/2/1
f 57/1/1 52/1/1 51/1/1
f 58/1/1 53/1/1 57/1/1
f 61/1/1 60/1/1 59/1/1
f 62/1/1 60/1/1 61/1/1
f 68/2/1 64/2/1 63/2/1
f 69/1/1 65/1/1 64/1/1
f 69/2/1 64/2/1 68/2/1
f 70/2/1 66/2/1 65/2/1
f 70/1/1 65/1/1 69/1/1
f 71/1/1 67/1/1 66/1/1
f 71/2/1 66/2/1 70/2/1
f 72/1/1 67/1/1 71/1/1
f 73/2/2 74/2/2 77/2/2
f 75/1/2 76/1/2 78/1/2
f 77/2/2 74/2/2 78/2/2
f 74/1/2 75/1/2 78/1/2
f 78/1/2 76/1/2 79/1/2
f 80/6/2 81/6/2 82/6/2
f 82/6/2 81/6/2 83/6/2
f 84/3/2 85/3/2 86/3/2
f 86/3/2 85/3/2 87/3/2
f 87/3/2 88/3/2 90/3/2
f 90/3/2 88/3/2 91/3/2
f 89/6/2 90/6/2 93/6/2
f 90/3/2 91/3/2 94/3/2
f 93/6/2 90/6/2 94/6/2
f 91/6/2 92/6/2 95/6/2
f 94/3/2 91/3/2 95/3/2
f 95/6/2 92/6/2 96/6/2
f 97/6/2 98/6/2 101/6/2
f 101/6/2 98/6/2 102/6/2
f 99/6/2 100/6/2 103/6/2
f 103/6/2 100/6/2 104/6/2
f 105/6/2 106/6/2 107/6/2
f 107/6/2 106/6/2 108/6/2
f 109/3/2 110/3/2 111/3/2
f 111/3/2 110/3/2 112/3/2
f 113/6/2 114/6/2 117/6/2
f 117/6/2 114/6/2 118/6/2
f 115/6/2 116/6/2 119/6/2
f 119/6/2 116/6/2 120/6/2
f 118/6/2 119/6/2 121/6/2
f 121/6/2 119/6/2 122/6/2
f 123/3/2 124/3/2 125/3/2
f 125/3/2 124/3/2 126/3/2
f 127/6/2 128/6/2 129/6/2
f 129/6/2 128/6/2 130/6/2
f 131/1/2 132/1/2 137/1/2
f 132/1/2 133/1/2 137/1/2
f 133/2/2 134/2/2 138/2/2
f 137/1/2 133/1/2 138/1/2
f 135/1/2 136/1/2 139/1/2
f 138/2/2 134/2/2 139/2/2
f 134/1/2 135/1/2 139/1/2
f 139/1/2 136/1/2 140/1/2
f 141/1/2 142/1/2 143/1/2
f 143/1/2 142/1/2 144/1/2
f 144/1/2 142/1/2 145/1/2
f 145/1/2 142/1/2 146/1/2
f 143/2/2 144/2/2 147/2/2
f 144/1/2 145/1/2 148/1/2
f 147/2/2 144/2/2 148/2/2
f 145/2/2 146/2/2 149/2/2
f 148/1/2 145/1/2 149/1/2
f 146/1/2 142/1/2 150/1/2
f 149/2/2 146/2/2 150/2/2
f 150/1/2 142/1/2 151/1/2
f 152/1/2 153/1/2 154/1/2
f 154/1/2 153/1/2 155/1/2
f 155/1/2 153/1/2 156/1/2
f 156/1/2 153/1/2 157/1/2
f 154/2/2 155/2/2 158/2/2
f 155/1/2 156/1/2 159/1/2
f 158/2/2 155/2/2 159/2/2
f 156/2/2 157/2/2 160/2/2
f 159/1/2 156/1/2 160/1/2
f 157/1/2 153/1/2 161/1/2
f 160/2/2 157/2/2 161/2/2
f 161/1/2 153/1/2 162/1/2
f 166/1/3 164/1/3 163/1/3
f 167/2/3 165/2/3 164/2/3
f 167/1/3 164/1/3 166/1/3
f 168/2/3 165/2/3 167/2/3
f 169/1/3 166/1/3 163/1/3
f 169/4/3 167/4/3 166/4/3
f 170/4/3 167/4/3 169/4/3
f 171/1/3 169/1/3 163/1/3
f 171/5/3 170/5/3 169/5/3
f 172/5/3 170/5/3 171/5/3
f 173/1/3 171/1/3 163/1/3
f 173/4/3 172/4/3 171/4/3
f 174/4/3 172/4/3 173/4/3
f 175/1/3 173/1/3 163/1/3
f 175/5/3 174/5/3 173/5/3
f 176/5/3 174/5/3 175/5/3
f 177/1/3 175/1/3 163/1/3
f 177/4/3 176/4/3 175/4/3
f 178/4/3 176/4/3 177/4/3
f 179/1/3 177/1/3 163/1/3
f 179/5/3 178/5/3 177/5/3
f 180/5/3 178/5/3 179/5/3
f 182/1/3 180/1/3 179/1/3
f 182/1/3 179/1/3 163/1/3
f 183/2/3 181/2/3 180/2/3
f 183/1/3 180/1/3 182/1/3
f 184/2/3 181/2/3 183/2/3
f 190/6/3 186/6/3 185/6/3
f 191/6/3 186/6/3 190/6/3
f 192/6/3 186/6/3 191/6/3
f 193/3/3 188/3/3 187/3/3
f 194/3/3 188/3/3 193/3/3
f 195/6/3 190/6/3 189/6/3
f 195/6/3 191/6/3 190/6/3
f 196/6/3 191/6/3 195/6/3
f 197/6/3 191/6/3 196/6/3
f 198/6/3 191/6/3 197/6/3
f 199/6/3 197/6/3 196/6/3
f 200/6/3 197/6/3 199/6/3
f 204/3/3 202/3/3 201/3/3
f 205/6/3 203/6/3 202/6/3
f 205/3/3 202/3/3 204/3/3
f 206/6/3 203/6/3 205/6/3
f 211/3/3 205/3/3 204/3/3
f 212/3/3 205/3/3 211/3/3
f 214/6/3 208/6/3 207/6/3
f 214/6/3 209/6/3 208/6/3
f 215/6/3 209/6/3 214/6/3
f 216/6/3 209/6/3 215/6/3
f 217/3/3 211/3/3 210/3/3
f 218/3/3 211/3/3 217/3/3
f 220/6/3 215/6/3 214/6/3
f 220/6/3 214/6/3 213/6/3
f 221/6/3 215/6/3 220/6/3
f 222/6/3 220/6/3 219/6/3
f 223/6/3 220/6/3 222/6/3
f 226/3/3 225/3/3 224/3/3
f 227/3/3 225/3/3 226/3/3
f 230/1/3 229/1/3 228/1/3
f 231/1/3 229/1/3 230/1/3
f 232/6/4 233/6/4 234/6/4
f 234/6/4 233/6/4 235/6/4
f 236/3/4 237/3/4 241/3/4
f 237/6/4 238/6/4 241/6/4
f 241/6/4 238/6/4 242/6/4
f 239/6/4 240/6/4 243/6/4
f 243/6/4 240/6/4 244/6/4
f 236/3/4 241/3/4 246/3/4
f 246/3/4 241/3/4 247/3/4
f 244/6/4 245/6/4 249/6/4
f 249/6/4 245/6/4 250/6/4
f 250/6/4 245/6/4 251/6/4
f 248/6/4 249/6/4 253/6/4
f 249/6/4 250/6/4 253/6/4
f 253/6/4 250/6/4 254/6/4
f 252/6/4 253/6/4 255/6/4
f 255/6/4 253/6/4 256/6/4
f 260/6/4 261/6/4 263/6/4
f 263/6/4 261/6/4 264/6/4
f 257/1/4 258/1/4 266/1/4
f 258/2/4 259/2/4 266/2/4
f 266/2/4 259/2/4 267/2/4
f 264/6/4 265/6/4 268/6/4
f 263/6/4 264/6/4 268/6/4
f 262/6/4 263/6/4 268/6/4
f 268/6/4 265/6/4 269/6/4
f 269/6/4 265/6/4 270/6/4
f 270/6/4 265/6/4 271/6/4
f 257/1/4 266/1/4 272/1/4
f 272/1/4 266/1/4 273/1/4
f 266/3/4 267/3/4 274/3/4
f 273/1/4 266/1/4 274/1/4
f 269/6/4 270/6/4 275/6/4
f 275/6/4 270/6/4 276/6/4
f 273/3/4 274/3/4 277/3/4
f 274/3/4 267/3/4 278/3/4
f 277/3/4 274/3/4 278/3/4
f 278/3/4 267/3/4 279/3/4
f 280/2/4 281/2/4 284/2/4
f 284/2/4 281/2/4 285/2/4
f 282/1/4 283/1/4 286/1/4
f 283/1/4 284/1/4 286/1/4
f 284/1/4 285/1/4 286/1/4
f 282/1/4 286/1/4 288/1/4
f 286/1/4 287/1/4 288/1/4
f 288/1/4 287/1/4 289/1/4
f 290/1/4 291/1/4 292/1/4
f 290/1/4 292/1/4 294/1/4
f 292/1/4 293/1/4 294/1/4
f 294/1/4 293/1/4 295/1/4
f 290/1/4 294/1/4 296/1/4
f 296/1/4 294/1/4 297/1/4
f 300/1/5 299/1/5 298/1/5
f 301/1/5 299/1/5 300/1/5
f 302/1/5 299/1/5 301/1/5
f 303/1/5 299/1/5 302/1/5
f 304/1/5 302/1/5 301/1/5
f 305/1/5 302/1/5 304/1/5
f 308/6/5 307/6/5 306/6/5
f 309/6/5 307/6/5 308/6/5
f 312/6/5 311/6/5 310/6/5
f 313/6/5 311/6/5 312/6/5
f 318/6/5 315/6/5 314/6/5
f 319/6/5 315/6/5 318/6/5
f 320/6/5 317/6/5 316/6/5
f 321/6/5 317/6/5 320/6/5
f 325/3/5 321/3/5 320/3/5
f 326/6/5 322/6/5 321/6/5
f 326/3/5 321/3/5 325/3/5
f 327/6/5 322/6/5 326/6/5
f 328/6/5 324/6/5 323/6/5
f 329/6/5 324/6/5 328/6/5
f 330/6/5 326/6/5 325/6/5
f 331/6/5 326/6/5 330/6/5
f 332/1/6 333/1/6 336/1/6
f 334/2/6 335/2/6 337/2/6
f 337/2/6 335/2/6 338/2/6
f 332/1/6 336/1/6 339/1/6
f 339/1/6 336/1/6 340/1/6
f 339/2/6 340/2/6 341/2/6
f 337/1/6 338/1/6 342/1/6
f 339/2/6 341/2/6 343/2/6
f 343/2/6 341/2/6 344/2/6
f 342/1/6 338/1/6 345/1/6
f 345/1/6 338/1/6 346/1/6
f 345/2/6 346/2/6 347/2/6
f 347/2/6 346/2/6 348/2/6
f 343/1/6 344/1/6 349/1/6
f 349/1/6 344/1/6 350/1/6
f 347/1/6 348/1/6 351/1/6
f 351/1/6 348/1/6 352/1/6
f 354/5/6 355/5/6 360/5/6
f 355/4/6 356/4/6 360/4/6
f 356/5/6 357/5/6 361/5/6
f 360/4/6 356/4/6 361/4/6
f 357/4/6 358/4/6 362/4/6
f 361/5/6 357/5/6 362/5/6
f 358/5/6 359/5/6 363/5/6
f 362/4/6 358/4/6 363/4/6
f 353/4/6 354/4/6 364/4/6
f 360/5/6 361/5/6 365/5/6
f 364/4/6 354/4/6 365/4/6
f 354/5/6 360/5/6 365/5/6
f 365/5/6 361/5/6 366/5/6
f 366/5/6 361/5/6 367/5/6
f 361/4/6 362/4/6 368/4/6
f 367/5/6 361/5/6 368/5/6
f 362/5/6 363/5/6 369/5/6
f 368/4/6 362/4/6 369/4/6
f 363/5/6 359/5/6 370/5/6
f 369/5/6 363/5/6 370/5/6
f 370/5/6 359/5/6 371/5/6
f 366/4/6 367/4/6 372/4/6
f 364/5/6 365/5/6 372/5/6
f 365/5/6 366/5/6 372/5/6
f 368/5/6 369/5/6 373/5/6
f 372/4/6 367/4/6 373/4/6
f 367/5/6 368/5/6 373/5/6
f 369/5/6 370/5/6 373/5/6
f 364/5/6 372/5/6 374/5/6
f 372/5/6 373/5/6 374/5/6
f 374/5/6 373/5/6 375/5/6
f 373/5/6 370/5/6 376/5/6
f 375/5/6 373/5/6 376/5/6
f 370/4/6 371/4/6 377/4/6
f 376/5/6 370/5/6 377/5/6
f 377/4/6 371/4/6 378/4/6
f 374/3/6 375/3/6 379/3/6
f 375/5/6 376/5/6 380/5/6
f 379/3/6 375/3/6 380/3/6
f 380/5/6 376/5/6 381/5/6
f 381/5/6 376/5/6 382/5/6
f 382/5/6 376/5/6 383/5/6
f 383/5/6 376/5/6 384/5/6
f 384/5/6 376/5/6 385/5/6
f 385/5/6 376/5/6 386/5/6
f 376/4/6 377/4/6 387/4/6
f 386/5/6 376/5/6 387/5/6
f 377/5/6 378/5/6 388/5/6
f 387/4/6 377/4/6 388/4/6
f 380/3/6 381/3/6 389/3/6
f 381/5/6 382/5/6 390/5/6
f 389/3/6 381/3/6 390/3/6
f 382/1/6 383/1/6 391/1/6
f 390/5/6 382/5/6 391/5/6
f 383/5/6 384/5/6 392/5/6
f 391/1/6 383/1/6 392/1/6
f 384/1/6 385/1/6 393/1/6
f 392/5/6 384/5/6 393/5/6
f 385/5/6 386/5/6 394/5/6
f 393/1/6 385/1/6 394/1/6
f 386/1/6 387/1/6 395/1/6
f 394/5/6 386/5/6 395/5/6
f 387/5/6 388/5/6 396/5/6
f 395/1/6 387/1/6 396/1/6
f 388/5/6 378/5/6 397/5/6
f 396/5/6 388/5/6 397/5/6
f 390/3/6 391/3/6 398/3/6
f 391/5/6 392/5/6 399/5/6
f 398/3/6 391/3/6 399/3/6
f 392/1/6 393/1/6 400/1/6
f 399/5/6 392/5/6 400/5/6
f 393/5/6 394/5/6 401/5/6
f 400/1/6 393/1/6 401/1/6
f 394/1/6 395/1/6 402/1/6
f 401/5/6 394/5/6 402/5/6
f 395/5/6 396/5/6 403/5/6
f 402/1/6 395/1/6 403/1/6
f 396/5/6 397/5/6 403/5/6
f 403/5/6 397/5/6 404/5/6
f 404/5/6 397/5/6 405/5/6
f 405/5/6 397/5/6 406/5/6
f 399/3/6 400/3/6 407/3/6
f 401/1/6 402/1/6 408/1/6
f 407/3/6 400/3/6 408/3/6
f 400/1/6 401/1/6 408/1/6
f 408/1/6 402/1/6 409/1/6
f 403/2/6 404/2/6 410/2/6
f 409/1/6 402/1/6 410/1/6
f 402/2/6 403/2/6 410/2/6
f 410/2/6 404/2/6 411/2/6
f 404/1/6 405/1/6 412/1/6
f 411/2/6 404/2/6 412/2/6
f 412/1/6 405/1/6 413/1/6
f 408/3/6 409/3/6 414/3/6
f 407/3/6 408/3/6 414/3/6
f 410/1/6 411/1/6 415/1/6
f 414/3/6 409/3/6 415/3/6
f 409/1/6 410/1/6 415/1/6
f 414/1/6 415/1/6 416/1/6
f 415/1/6 411/1/6 417/1/6
f 416/1/6 415/1/6 417/1/6
f 416/2/6 417/2/6 418/2/6
f 418/2/6 417/2/6 419/2/6
f 417/1/6 411/1/6 420/1/6
f 419/2/6 417/2/6 420/2/6
f 420/1/6 411/1/6 421/1/6
f 418/1/6 419/1/6 422/1/6
f 419/2/6 420/2/6 422/2/6
f 420/2/6 421/2/6 422/2/6
f 422/2/6 421/2/6 423/2/6
f 422/1/6 423/1/6 424/1/6
f 423/2/6 421/2/6 424/2/6
f 424/2/6 421/2/6 425/2/6
f 418/1/6 422/1/6 426/1/6
f 422/1/6 424/1/6 426/1/6
f 424/1/6 425/1/6 426/1/6
f 426/1/6 425/1/6 427/1/6
f 428/2/6 429/2/6 432/2/6
f 432/2/6 429/2/6 433/2/6
f 430/2/6 431/2/6 434/2/6
f 434/2/6 431/2/6 435/2/6
f 434/1/6 435/1/6 436/1/6
f 436/1/6 435/1/6 437/1/6
f 432/1/6 433/1/6 438/1/6
f 432/1/6 438/1/6 440/1/6
f 438/3/6 439/3/6 441/3/6
f 440/1/6 438/1/6 441/1/6
f 441/3/6 439/3/6 442/3/6
f 436/2/6 437/2/6 444/2/6
f 444/2/6 437/2/6 445/2/6
f 442/3/6 443/3/6 447/3/6
f 447/3/6 443/3/6 448/3/6
f 444/1/6 445/1/6 451/1/6
f 446/2/6 447/2/6 452/2/6
f 448/3/6 449/3/6 453/3/6
f 452/2/6 447/2/6 453/2/6
f 447/3/6 448/3/6 453/3/6
f 453/3/6 449/3/6 454/3/6
f 450/1/6 451/1/6 455/1/6
f 451/1/6 445/1/6 456/1/6
f 455/1/6 451/1/6 456/1/6
f 457/6/6 458/6/6 459/6/6
f 459/6/6 458/6/6 460/6/6
f 460/6/6 461/6/6 465/6/6
f 465/6/6 461/6/6 466/6/6
f 462/6/6 463/6/6 467/6/6
f 467/6/6 463/6/6 468/6/6
f 464/6/6 465/6/6 469/6/6
f 469/6/6 465/6/6 470/6/6
f 471/6/6 472/6/6 474/6/6
f 474/6/6 472/6/6 475/6/6
f 473/6/6 474/6/6 476/6/6
f 476/6/6 474/6/6 477/6/6
f 477/6/6 478/6/6 479/6/6
f 479/6/6 478/6/6 480/6/6
f 481/6/6 482/6/6 483/6/6
f 483/6/6 482/6/6 484/6/6
f 485/6/6 486/6/6 487/6/6
f 487/6/6 486/6/6 488/6/6
f 489/6/6 490/6/6 491/6/6
f 491/6/6 490/6/6 492/6/6
