# MagicaVoxel @ Ephtracy

# group
o 

# material
mtllib platform_2.mtl
usemtl palette

# normals
vn -1 0 0
vn 1 0 0
vn 0 0 1
vn 0 0 -1
vn 0 -1 0
vn 0 1 0

# texcoords
vt 0.888672 0.5
vt 0.966797 0.5
vt 0.970703 0.5
vt 0.974609 0.5
vt 0.982422 0.5
vt 0.986328 0.5

# verts
v -0.4 0.3 0.7
v -0.4 0.3 0.5
v -0.4 0.3 0.1
v -0.4 0.3 -0.1
v -0.4 0.3 -0.5
v -0.4 0.3 -0.7
v -0.4 0.4 0.5
v -0.4 0.4 0.1
v -0.4 0.4 -0.1
v -0.4 0.4 -0.5
v -0.4 0.5 0.4
v -0.4 0.5 0.3
v -0.4 0.5 -0.3
v -0.4 0.5 -0.4
v -0.4 0.6 0.7
v -0.4 0.6 0.4
v -0.4 0.6 0.3
v -0.4 0.6 -0.3
v -0.4 0.6 -0.4
v -0.4 0.6 -0.7
v -0.3 0.2 0.7
v -0.3 0.2 0.6
v -0.3 0.2 -0.6
v -0.3 0.2 -0.7
v -0.3 0.3 0.7
v -0.3 0.3 0.6
v -0.3 0.3 0.5
v -0.3 0.3 0.1
v -0.3 0.3 -0.1
v -0.3 0.3 -0.5
v -0.3 0.3 -0.6
v -0.3 0.3 -0.7
v -0.3 0.4 0.5
v -0.3 0.4 0.1
v -0.3 0.4 -0.1
v -0.3 0.4 -0.5
v 0.3 0.5 0.7
v 0.3 0.5 0.5
v 0.3 0.5 0.4
v 0.3 0.5 0.3
v 0.3 0.5 0.2
v 0.3 0.5 -0.2
v 0.3 0.5 -0.3
v 0.3 0.5 -0.4
v 0.3 0.5 -0.5
v 0.3 0.5 -0.7
v 0.3 0.6 0.7
v 0.3 0.6 0.4
v 0.3 0.6 0.3
v 0.3 0.6 -0.3
v 0.3 0.6 -0.4
v 0.3 0.6 -0.7
v -0.3 0.5 0.7
v -0.3 0.5 0.5
v -0.3 0.5 0.4
v -0.3 0.5 0.3
v -0.3 0.5 0.2
v -0.3 0.5 -0.2
v -0.3 0.5 -0.3
v -0.3 0.5 -0.4
v -0.3 0.5 -0.5
v -0.3 0.5 -0.7
v -0.3 0.6 0.7
v -0.3 0.6 0.4
v -0.3 0.6 0.3
v -0.3 0.6 -0.3
v -0.3 0.6 -0.4
v -0.3 0.6 -0.7
v 0.3 0.2 0.7
v 0.3 0.2 0.6
v 0.3 0.2 -0.6
v 0.3 0.2 -0.7
v 0.3 0.3 0.7
v 0.3 0.3 0.6
v 0.3 0.3 0.5
v 0.3 0.3 0.1
v 0.3 0.3 -0.1
v 0.3 0.3 -0.5
v 0.3 0.3 -0.6
v 0.3 0.3 -0.7
v 0.3 0.4 0.5
v 0.3 0.4 0.1
v 0.3 0.4 -0.1
v 0.3 0.4 -0.5
v 0.4 0.3 0.7
v 0.4 0.3 0.5
v 0.4 0.3 0.1
v 0.4 0.3 -0.1
v 0.4 0.3 -0.5
v 0.4 0.3 -0.7
v 0.4 0.4 0.5
v 0.4 0.4 0.1
v 0.4 0.4 -0.1
v 0.4 0.4 -0.5
v 0.4 0.5 0.4
v 0.4 0.5 0.3
v 0.4 0.5 -0.3
v 0.4 0.5 -0.4
v 0.4 0.6 0.7
v 0.4 0.6 0.4
v 0.4 0.6 0.3
v 0.4 0.6 -0.3
v 0.4 0.6 -0.4
v 0.4 0.6 -0.7
v -0.4 0.3 0.7
v -0.4 0.6 0.7
v -0.3 0.2 0.7
v -0.3 0.3 0.7
v -0.3 0.4 0.7
v -0.3 0.5 0.7
v -0.3 0.6 0.7
v -0.2 0.2 0.7
v -0.2 0.3 0.7
v -0.2 0.4 0.7
v -0.2 0.5 0.7
v -0.1 0.3 0.7
v -0.1 0.4 0.7
v 0.1 0.3 0.7
v 0.1 0.4 0.7
v 0.2 0.2 0.7
v 0.2 0.3 0.7
v 0.2 0.4 0.7
v 0.2 0.5 0.7
v 0.3 0.2 0.7
v 0.3 0.3 0.7
v 0.3 0.4 0.7
v 0.3 0.5 0.7
v 0.3 0.6 0.7
v 0.4 0.3 0.7
v 0.4 0.6 0.7
v -0.4 0.3 0.1
v -0.4 0.4 0.1
v -0.3 0.3 0.1
v -0.3 0.4 0.1
v 0.3 0.3 0.1
v 0.3 0.4 0.1
v 0.4 0.3 0.1
v 0.4 0.4 0.1
v -0.4 0.3 -0.5
v -0.4 0.4 -0.5
v -0.3 0.3 -0.5
v -0.3 0.4 -0.5
v 0.3 0.3 -0.5
v 0.3 0.4 -0.5
v 0.4 0.3 -0.5
v 0.4 0.4 -0.5
v -0.3 0.2 -0.6
v -0.3 0.3 -0.6
v -0.2 0.2 -0.6
v -0.2 0.3 -0.6
v 0.2 0.2 -0.6
v 0.2 0.3 -0.6
v 0.3 0.2 -0.6
v 0.3 0.3 -0.6
v -0.3 0.2 0.6
v -0.3 0.3 0.6
v -0.2 0.2 0.6
v -0.2 0.3 0.6
v 0.2 0.2 0.6
v 0.2 0.3 0.6
v 0.3 0.2 0.6
v 0.3 0.3 0.6
v -0.4 0.3 0.5
v -0.4 0.4 0.5
v -0.3 0.3 0.5
v -0.3 0.4 0.5
v 0.3 0.3 0.5
v 0.3 0.4 0.5
v 0.4 0.3 0.5
v 0.4 0.4 0.5
v -0.4 0.3 -0.1
v -0.4 0.4 -0.1
v -0.3 0.3 -0.1
v -0.3 0.4 -0.1
v 0.3 0.3 -0.1
v 0.3 0.4 -0.1
v 0.4 0.3 -0.1
v 0.4 0.4 -0.1
v -0.4 0.3 -0.7
v -0.4 0.6 -0.7
v -0.3 0.2 -0.7
v -0.3 0.3 -0.7
v -0.3 0.4 -0.7
v -0.3 0.5 -0.7
v -0.3 0.6 -0.7
v -0.2 0.2 -0.7
v -0.2 0.3 -0.7
v -0.2 0.4 -0.7
v -0.2 0.5 -0.7
v -0.1 0.3 -0.7
v -0.1 0.4 -0.7
v -0.1 0.5 -0.7
v 0 0.4 -0.7
v 0 0.5 -0.7
v 0.1 0.3 -0.7
v 0.1 0.4 -0.7
v 0.2 0.2 -0.7
v 0.2 0.3 -0.7
v 0.2 0.4 -0.7
v 0.2 0.5 -0.7
v 0.3 0.2 -0.7
v 0.3 0.3 -0.7
v 0.3 0.4 -0.7
v 0.3 0.5 -0.7
v 0.3 0.6 -0.7
v 0.4 0.3 -0.7
v 0.4 0.6 -0.7
v -0.3 0.2 0.7
v -0.2 0.2 0.7
v 0.2 0.2 0.7
v 0.3 0.2 0.7
v -0.3 0.2 0.6
v -0.2 0.2 0.6
v 0.2 0.2 0.6
v 0.3 0.2 0.6
v -0.3 0.2 -0.6
v -0.2 0.2 -0.6
v 0.2 0.2 -0.6
v 0.3 0.2 -0.6
v -0.3 0.2 -0.7
v -0.2 0.2 -0.7
v 0.2 0.2 -0.7
v 0.3 0.2 -0.7
v -0.4 0.3 0.7
v -0.3 0.3 0.7
v 0.3 0.3 0.7
v 0.4 0.3 0.7
v -0.3 0.3 0.6
v -0.2 0.3 0.6
v 0.2 0.3 0.6
v 0.3 0.3 0.6
v -0.4 0.3 0.5
v -0.3 0.3 0.5
v -0.2 0.3 0.5
v 0.2 0.3 0.5
v 0.3 0.3 0.5
v 0.4 0.3 0.5
v -0.4 0.3 0.1
v -0.3 0.3 0.1
v 0.3 0.3 0.1
v 0.4 0.3 0.1
v -0.4 0.3 -0.1
v -0.3 0.3 -0.1
v 0.3 0.3 -0.1
v 0.4 0.3 -0.1
v -0.4 0.3 -0.5
v -0.3 0.3 -0.5
v -0.2 0.3 -0.5
v 0.2 0.3 -0.5
v 0.3 0.3 -0.5
v 0.4 0.3 -0.5
v -0.3 0.3 -0.6
v -0.2 0.3 -0.6
v 0.2 0.3 -0.6
v 0.3 0.3 -0.6
v -0.4 0.3 -0.7
v -0.3 0.3 -0.7
v 0.3 0.3 -0.7
v 0.4 0.3 -0.7
v -0.4 0.4 0.5
v -0.3 0.4 0.5
v 0.3 0.4 0.5
v 0.4 0.4 0.5
v -0.4 0.4 0.1
v -0.3 0.4 0.1
v 0.3 0.4 0.1
v 0.4 0.4 0.1
v -0.4 0.4 -0.1
v -0.3 0.4 -0.1
v 0.3 0.4 -0.1
v 0.4 0.4 -0.1
v -0.4 0.4 -0.5
v -0.3 0.4 -0.5
v 0.3 0.4 -0.5
v 0.4 0.4 -0.5
v -0.3 0.5 0.7
v -0.2 0.5 0.7
v 0.2 0.5 0.7
v 0.3 0.5 0.7
v -0.1 0.5 0.6
v 0 0.5 0.6
v -0.3 0.5 0.5
v -0.2 0.5 0.5
v -0.1 0.5 0.5
v 0 0.5 0.5
v 0.2 0.5 0.5
v 0.3 0.5 0.5
v -0.3 0.5 0.4
v -0.2 0.5 0.4
v 0 0.5 0.4
v 0.1 0.5 0.4
v 0.2 0.5 0.4
v 0.3 0.5 0.4
v -0.3 0.5 0.3
v -0.2 0.5 0.3
v 0 0.5 0.3
v 0.1 0.5 0.3
v 0.2 0.5 0.3
v 0.3 0.5 0.3
v -0.3 0.5 0.2
v -0.2 0.5 0.2
v -0.1 0.5 0.2
v 0 0.5 0.2
v 0.2 0.5 0.2
v 0.3 0.5 0.2
v -0.1 0.5 0.1
v 0 0.5 0.1
v 0 0.5 0
v 0.1 0.5 0
v 0 0.5 -0.1
v 0.1 0.5 -0.1
v -0.3 0.5 -0.2
v -0.2 0.5 -0.2
v -0.1 0.5 -0.2
v 0 0.5 -0.2
v 0.2 0.5 -0.2
v 0.3 0.5 -0.2
v -0.3 0.5 -0.3
v -0.2 0.5 -0.3
v -0.1 0.5 -0.3
v 0 0.5 -0.3
v 0.2 0.5 -0.3
v 0.3 0.5 -0.3
v -0.3 0.5 -0.4
v -0.2 0.5 -0.4
v 0 0.5 -0.4
v 0.1 0.5 -0.4
v 0.2 0.5 -0.4
v 0.3 0.5 -0.4
v -0.3 0.5 -0.5
v -0.2 0.5 -0.5
v 0 0.5 -0.5
v 0.1 0.5 -0.5
v 0.2 0.5 -0.5
v 0.3 0.5 -0.5
v -0.1 0.5 -0.6
v 0 0.5 -0.6
v -0.3 0.5 -0.7
v -0.2 0.5 -0.7
v -0.1 0.5 -0.7
v 0 0.5 -0.7
v 0.2 0.5 -0.7
v 0.3 0.5 -0.7
v -0.4 0.6 0.7
v -0.3 0.6 0.7
v 0.3 0.6 0.7
v 0.4 0.6 0.7
v -0.4 0.6 0.4
v -0.3 0.6 0.4
v 0.3 0.6 0.4
v 0.4 0.6 0.4
v -0.4 0.6 0.3
v -0.3 0.6 0.3
v 0.3 0.6 0.3
v 0.4 0.6 0.3
v -0.4 0.6 -0.3
v -0.3 0.6 -0.3
v 0.3 0.6 -0.3
v 0.4 0.6 -0.3
v -0.4 0.6 -0.4
v -0.3 0.6 -0.4
v 0.3 0.6 -0.4
v 0.4 0.6 -0.4
v -0.4 0.6 -0.7
v -0.3 0.6 -0.7
v 0.3 0.6 -0.7
v 0.4 0.6 -0.7

# faces
f 7/5/1 2/5/1 1/5/1
f 8/5/1 4/5/1 3/5/1
f 9/5/1 4/5/1 8/5/1
f 10/5/1 6/5/1 5/5/1
f 11/5/1 9/5/1 8/5/1
f 11/5/1 10/5/1 9/5/1
f 11/5/1 8/5/1 7/5/1
f 12/5/1 10/5/1 11/5/1
f 13/5/1 10/5/1 12/5/1
f 14/5/1 10/5/1 13/5/1
f 15/5/1 7/5/1 1/5/1
f 15/5/1 11/5/1 7/5/1
f 16/6/1 12/6/1 11/6/1
f 16/5/1 11/5/1 15/5/1
f 17/5/1 13/5/1 12/5/1
f 17/6/1 12/6/1 16/6/1
f 18/6/1 14/6/1 13/6/1
f 18/5/1 13/5/1 17/5/1
f 19/5/1 10/5/1 14/5/1
f 19/6/1 14/6/1 18/6/1
f 20/5/1 6/5/1 10/5/1
f 20/5/1 10/5/1 19/5/1
f 25/5/1 22/5/1 21/5/1
f 26/5/1 22/5/1 25/5/1
f 31/5/1 24/5/1 23/5/1
f 32/5/1 24/5/1 31/5/1
f 33/6/1 28/6/1 27/6/1
f 34/6/1 28/6/1 33/6/1
f 35/6/1 30/6/1 29/6/1
f 36/6/1 30/6/1 35/6/1
f 47/5/1 38/5/1 37/5/1
f 47/5/1 39/5/1 38/5/1
f 48/6/1 40/6/1 39/6/1
f 48/5/1 39/5/1 47/5/1
f 49/5/1 41/5/1 40/5/1
f 49/6/1 40/6/1 48/6/1
f 49/5/1 42/5/1 41/5/1
f 49/5/1 43/5/1 42/5/1
f 50/6/1 44/6/1 43/6/1
f 50/5/1 43/5/1 49/5/1
f 51/5/1 46/5/1 45/5/1
f 51/6/1 44/6/1 50/6/1
f 51/5/1 45/5/1 44/5/1
f 52/5/1 46/5/1 51/5/1
f 53/5/2 54/5/2 63/5/2
f 54/5/2 55/5/2 63/5/2
f 55/6/2 56/6/2 64/6/2
f 63/5/2 55/5/2 64/5/2
f 56/5/2 57/5/2 65/5/2
f 64/6/2 56/6/2 65/6/2
f 57/5/2 58/5/2 65/5/2
f 58/5/2 59/5/2 65/5/2
f 59/6/2 60/6/2 66/6/2
f 65/5/2 59/5/2 66/5/2
f 61/5/2 62/5/2 67/5/2
f 66/6/2 60/6/2 67/6/2
f 60/5/2 61/5/2 67/5/2
f 67/5/2 62/5/2 68/5/2
f 69/5/2 70/5/2 73/5/2
f 73/5/2 70/5/2 74/5/2
f 71/5/2 72/5/2 79/5/2
f 79/5/2 72/5/2 80/5/2
f 75/6/2 76/6/2 81/6/2
f 81/6/2 76/6/2 82/6/2
f 77/6/2 78/6/2 83/6/2
f 83/6/2 78/6/2 84/6/2
f 85/5/2 86/5/2 91/5/2
f 87/5/2 88/5/2 92/5/2
f 92/5/2 88/5/2 93/5/2
f 89/5/2 90/5/2 94/5/2
f 92/5/2 93/5/2 95/5/2
f 93/5/2 94/5/2 95/5/2
f 91/5/2 92/5/2 95/5/2
f 95/5/2 94/5/2 96/5/2
f 96/5/2 94/5/2 97/5/2
f 97/5/2 94/5/2 98/5/2
f 85/5/2 91/5/2 99/5/2
f 91/5/2 95/5/2 99/5/2
f 95/6/2 96/6/2 100/6/2
f 99/5/2 95/5/2 100/5/2
f 96/5/2 97/5/2 101/5/2
f 100/6/2 96/6/2 101/6/2
f 97/6/2 98/6/2 102/6/2
f 101/5/2 97/5/2 102/5/2
f 98/5/2 94/5/2 103/5/2
f 102/6/2 98/6/2 103/6/2
f 94/5/2 90/5/2 104/5/2
f 103/5/2 94/5/2 104/5/2
f 108/5/3 106/5/3 105/5/3
f 109/5/3 106/5/3 108/5/3
f 110/5/3 106/5/3 109/5/3
f 111/5/3 106/5/3 110/5/3
f 112/5/3 108/5/3 107/5/3
f 112/5/3 109/5/3 108/5/3
f 113/5/3 109/5/3 112/5/3
f 114/2/3 110/2/3 109/2/3
f 114/5/3 109/5/3 113/5/3
f 115/2/3 110/2/3 114/2/3
f 116/6/3 113/6/3 112/6/3
f 116/5/3 114/5/3 113/5/3
f 117/3/3 115/3/3 114/3/3
f 117/5/3 114/5/3 116/5/3
f 118/6/3 116/6/3 112/6/3
f 118/1/3 117/1/3 116/1/3
f 119/3/3 115/3/3 117/3/3
f 119/1/3 117/1/3 118/1/3
f 120/6/3 118/6/3 112/6/3
f 121/5/3 119/5/3 118/5/3
f 121/6/3 118/6/3 120/6/3
f 122/3/3 115/3/3 119/3/3
f 122/5/3 119/5/3 121/5/3
f 123/3/3 115/3/3 122/3/3
f 124/5/3 121/5/3 120/5/3
f 124/5/3 122/5/3 121/5/3
f 125/5/3 122/5/3 124/5/3
f 126/2/3 123/2/3 122/2/3
f 126/5/3 122/5/3 125/5/3
f 127/2/3 123/2/3 126/2/3
f 129/5/3 127/5/3 126/5/3
f 129/5/3 128/5/3 127/5/3
f 129/5/3 126/5/3 125/5/3
f 130/5/3 128/5/3 129/5/3
f 133/5/3 132/5/3 131/5/3
f 134/5/3 132/5/3 133/5/3
f 137/5/3 136/5/3 135/5/3
f 138/5/3 136/5/3 137/5/3
f 141/5/3 140/5/3 139/5/3
f 142/5/3 140/5/3 141/5/3
f 145/5/3 144/5/3 143/5/3
f 146/5/3 144/5/3 145/5/3
f 149/5/3 148/5/3 147/5/3
f 150/5/3 148/5/3 149/5/3
f 151/6/3 150/6/3 149/6/3
f 152/6/3 150/6/3 151/6/3
f 153/5/3 152/5/3 151/5/3
f 154/5/3 152/5/3 153/5/3
f 155/5/4 156/5/4 157/5/4
f 157/5/4 156/5/4 158/5/4
f 157/6/4 158/6/4 159/6/4
f 159/6/4 158/6/4 160/6/4
f 159/5/4 160/5/4 161/5/4
f 161/5/4 160/5/4 162/5/4
f 163/5/4 164/5/4 165/5/4
f 165/5/4 164/5/4 166/5/4
f 167/5/4 168/5/4 169/5/4
f 169/5/4 168/5/4 170/5/4
f 171/5/4 172/5/4 173/5/4
f 173/5/4 172/5/4 174/5/4
f 175/5/4 176/5/4 177/5/4
f 177/5/4 176/5/4 178/5/4
f 179/5/4 180/5/4 182/5/4
f 182/5/4 180/5/4 183/5/4
f 183/5/4 180/5/4 184/5/4
f 184/5/4 180/5/4 185/5/4
f 181/5/4 182/5/4 186/5/4
f 182/5/4 183/5/4 186/5/4
f 186/5/4 183/5/4 187/5/4
f 183/2/4 184/2/4 188/2/4
f 187/5/4 183/5/4 188/5/4
f 188/2/4 184/2/4 189/2/4
f 186/6/4 187/6/4 190/6/4
f 187/5/4 188/5/4 190/5/4
f 188/3/4 189/3/4 191/3/4
f 190/5/4 188/5/4 191/5/4
f 191/3/4 189/3/4 192/3/4
f 190/1/4 191/1/4 193/1/4
f 191/4/4 192/4/4 193/4/4
f 193/4/4 192/4/4 194/4/4
f 186/6/4 190/6/4 195/6/4
f 190/1/4 193/1/4 195/1/4
f 193/3/4 194/3/4 196/3/4
f 195/1/4 193/1/4 196/1/4
f 186/6/4 195/6/4 197/6/4
f 195/5/4 196/5/4 198/5/4
f 197/6/4 195/6/4 198/6/4
f 196/3/4 194/3/4 199/3/4
f 198/5/4 196/5/4 199/5/4
f 199/3/4 194/3/4 200/3/4
f 197/5/4 198/5/4 201/5/4
f 198/5/4 199/5/4 201/5/4
f 201/5/4 199/5/4 202/5/4
f 199/2/4 200/2/4 203/2/4
f 202/5/4 199/5/4 203/5/4
f 203/2/4 200/2/4 204/2/4
f 203/5/4 204/5/4 206/5/4
f 204/5/4 205/5/4 206/5/4
f 202/5/4 203/5/4 206/5/4
f 206/5/4 205/5/4 207/5/4
f 212/5/5 209/5/5 208/5/5
f 213/6/5 210/6/5 209/6/5
f 213/5/5 209/5/5 212/5/5
f 214/5/5 211/5/5 210/5/5
f 214/6/5 210/6/5 213/6/5
f 215/5/5 211/5/5 214/5/5
f 220/5/5 217/5/5 216/5/5
f 221/6/5 218/6/5 217/6/5
f 221/5/5 217/5/5 220/5/5
f 222/5/5 219/5/5 218/5/5
f 222/6/5 218/6/5 221/6/5
f 223/5/5 219/5/5 222/5/5
f 228/5/5 225/5/5 224/5/5
f 231/5/5 227/5/5 226/5/5
f 232/5/5 228/5/5 224/5/5
f 232/5/5 229/5/5 228/5/5
f 233/5/5 229/5/5 232/5/5
f 234/6/5 230/6/5 229/6/5
f 234/5/5 229/5/5 233/5/5
f 235/5/5 231/5/5 230/5/5
f 235/6/5 230/6/5 234/6/5
f 236/5/5 227/5/5 231/5/5
f 236/5/5 231/5/5 235/5/5
f 237/5/5 227/5/5 236/5/5
f 239/6/5 234/6/5 233/6/5
f 239/6/5 236/6/5 235/6/5
f 239/6/5 235/6/5 234/6/5
f 240/6/5 236/6/5 239/6/5
f 242/5/5 239/5/5 238/5/5
f 243/6/5 240/6/5 239/6/5
f 243/5/5 239/5/5 242/5/5
f 244/5/5 241/5/5 240/5/5
f 244/6/5 240/6/5 243/6/5
f 245/5/5 241/5/5 244/5/5
f 247/6/5 244/6/5 243/6/5
f 248/6/5 244/6/5 247/6/5
f 249/6/5 244/6/5 248/6/5
f 250/6/5 244/6/5 249/6/5
f 252/5/5 247/5/5 246/5/5
f 252/5/5 248/5/5 247/5/5
f 253/6/5 249/6/5 248/6/5
f 253/5/5 248/5/5 252/5/5
f 254/5/5 251/5/5 250/5/5
f 254/6/5 249/6/5 253/6/5
f 254/5/5 250/5/5 249/5/5
f 255/5/5 251/5/5 254/5/5
f 256/5/5 252/5/5 246/5/5
f 257/5/5 252/5/5 256/5/5
f 258/5/5 251/5/5 255/5/5
f 259/5/5 251/5/5 258/5/5
f 264/5/5 261/5/5 260/5/5
f 265/5/5 261/5/5 264/5/5
f 266/5/5 263/5/5 262/5/5
f 267/5/5 263/5/5 266/5/5
f 272/5/5 269/5/5 268/5/5
f 273/5/5 269/5/5 272/5/5
f 274/5/5 271/5/5 270/5/5
f 275/5/5 271/5/5 274/5/5
f 277/3/6 278/3/6 280/3/6
f 280/3/6 278/3/6 281/3/6
f 276/2/6 277/2/6 282/2/6
f 277/3/6 280/3/6 283/3/6
f 282/2/6 277/2/6 283/2/6
f 280/4/6 281/4/6 284/4/6
f 283/3/6 280/3/6 284/3/6
f 281/3/6 278/3/6 285/3/6
f 284/4/6 281/4/6 285/4/6
f 278/2/6 279/2/6 286/2/6
f 285/3/6 278/3/6 286/3/6
f 286/2/6 279/2/6 287/2/6
f 282/4/6 283/4/6 288/4/6
f 283/3/6 284/3/6 289/3/6
f 288/4/6 283/4/6 289/4/6
f 284/3/6 285/3/6 289/3/6
f 285/3/6 286/3/6 289/3/6
f 289/3/6 286/3/6 290/3/6
f 290/3/6 286/3/6 291/3/6
f 286/4/6 287/4/6 292/4/6
f 291/3/6 286/3/6 292/3/6
f 292/4/6 287/4/6 293/4/6
f 288/3/6 289/3/6 294/3/6
f 289/3/6 290/3/6 294/3/6
f 294/3/6 290/3/6 295/3/6
f 290/4/6 291/4/6 296/4/6
f 295/3/6 290/3/6 296/3/6
f 292/3/6 293/3/6 297/3/6
f 296/4/6 291/4/6 297/4/6
f 291/3/6 292/3/6 297/3/6
f 297/3/6 293/3/6 298/3/6
f 298/3/6 293/3/6 299/3/6
f 294/4/6 295/4/6 300/4/6
f 295/3/6 296/3/6 301/3/6
f 300/4/6 295/4/6 301/4/6
f 296/3/6 297/3/6 301/3/6
f 297/3/6 298/3/6 301/3/6
f 301/3/6 298/3/6 302/3/6
f 302/3/6 298/3/6 303/3/6
f 298/4/6 299/4/6 304/4/6
f 303/3/6 298/3/6 304/3/6
f 304/4/6 299/4/6 305/4/6
f 302/4/6 303/4/6 306/4/6
f 301/3/6 302/3/6 306/3/6
f 303/3/6 304/3/6 307/3/6
f 306/4/6 303/4/6 307/4/6
f 306/3/6 307/3/6 308/3/6
f 307/3/6 304/3/6 308/3/6
f 308/3/6 304/3/6 309/3/6
f 306/3/6 308/3/6 310/3/6
f 308/4/6 309/4/6 310/4/6
f 309/3/6 304/3/6 311/3/6
f 310/4/6 309/4/6 311/4/6
f 300/2/6 301/2/6 312/2/6
f 301/3/6 306/3/6 313/3/6
f 312/2/6 301/2/6 313/2/6
f 306/3/6 310/3/6 313/3/6
f 310/3/6 311/3/6 313/3/6
f 313/3/6 311/3/6 314/3/6
f 314/3/6 311/3/6 315/3/6
f 311/3/6 304/3/6 316/3/6
f 315/3/6 311/3/6 316/3/6
f 304/2/6 305/2/6 316/2/6
f 316/2/6 305/2/6 317/2/6
f 312/4/6 313/4/6 318/4/6
f 313/3/6 314/3/6 319/3/6
f 318/4/6 313/4/6 319/4/6
f 314/4/6 315/4/6 320/4/6
f 319/3/6 314/3/6 320/3/6
f 315/3/6 316/3/6 321/3/6
f 320/4/6 315/4/6 321/4/6
f 316/4/6 317/4/6 322/4/6
f 321/3/6 316/3/6 322/3/6
f 322/4/6 317/4/6 323/4/6
f 318/3/6 319/3/6 324/3/6
f 319/3/6 320/3/6 324/3/6
f 322/3/6 323/3/6 324/3/6
f 321/3/6 322/3/6 324/3/6
f 320/3/6 321/3/6 324/3/6
f 324/3/6 323/3/6 325/3/6
f 325/3/6 323/3/6 326/3/6
f 326/3/6 323/3/6 327/3/6
f 327/3/6 323/3/6 328/3/6
f 328/3/6 323/3/6 329/3/6
f 324/4/6 325/4/6 330/4/6
f 325/3/6 326/3/6 331/3/6
f 330/4/6 325/4/6 331/4/6
f 326/4/6 327/4/6 332/4/6
f 331/3/6 326/3/6 332/3/6
f 327/3/6 328/3/6 333/3/6
f 332/4/6 327/4/6 333/4/6
f 328/4/6 329/4/6 334/4/6
f 333/3/6 328/3/6 334/3/6
f 334/4/6 329/4/6 335/4/6
f 331/3/6 332/3/6 336/3/6
f 332/3/6 333/3/6 336/3/6
f 333/3/6 334/3/6 336/3/6
f 336/3/6 334/3/6 337/3/6
f 330/2/6 331/2/6 338/2/6
f 331/3/6 336/3/6 339/3/6
f 338/2/6 331/2/6 339/2/6
f 336/4/6 337/4/6 340/4/6
f 339/3/6 336/3/6 340/3/6
f 337/3/6 334/3/6 341/3/6
f 340/4/6 337/4/6 341/4/6
f 334/2/6 335/2/6 342/2/6
f 341/3/6 334/3/6 342/3/6
f 342/2/6 335/2/6 343/2/6
f 344/5/6 345/5/6 348/5/6
f 348/5/6 345/5/6 349/5/6
f 346/5/6 347/5/6 350/5/6
f 350/5/6 347/5/6 351/5/6
f 348/6/6 349/6/6 352/6/6
f 352/6/6 349/6/6 353/6/6
f 350/6/6 351/6/6 354/6/6
f 354/6/6 351/6/6 355/6/6
f 352/5/6 353/5/6 356/5/6
f 356/5/6 353/5/6 357/5/6
f 354/5/6 355/5/6 358/5/6
f 358/5/6 355/5/6 359/5/6
f 356/6/6 357/6/6 360/6/6
f 360/6/6 357/6/6 361/6/6
f 358/6/6 359/6/6 362/6/6
f 362/6/6 359/6/6 363/6/6
f 360/5/6 361/5/6 364/5/6
f 364/5/6 361/5/6 365/5/6
f 362/5/6 363/5/6 366/5/6
f 366/5/6 363/5/6 367/5/6
